<?xml version="1.0" encoding="utf-8" standalone="no"?>
<!DOCTYPE svg PUBLIC "-//W3C//DTD SVG 1.1//EN"
  "http://www.w3.org/Graphics/SVG/1.1/DTD/svg11.dtd">
<svg xmlns:xlink="http://www.w3.org/1999/xlink" width="505.135625pt" height="365.728437pt" viewBox="0 0 505.135625 365.728437" xmlns="http://www.w3.org/2000/svg" version="1.1">
 <metadata>
  <rdf:RDF xmlns:dc="http://purl.org/dc/elements/1.1/" xmlns:cc="http://creativecommons.org/ns#" xmlns:rdf="http://www.w3.org/1999/02/22-rdf-syntax-ns#">
   <cc:Work>
    <dc:type rdf:resource="http://purl.org/dc/dcmitype/StillImage"/>
    <dc:date>1980-01-01T00:00:00+00:00</dc:date>
    <dc:format>image/svg+xml</dc:format>
    <dc:creator>
     <cc:Agent>
      <dc:title>Matplotlib v3.9.2, https://matplotlib.org/</dc:title>
     </cc:Agent>
    </dc:creator>
   </cc:Work>
  </rdf:RDF>
 </metadata>
 <defs>
  <style type="text/css">*{stroke-linejoin: round; stroke-linecap: butt}</style>
 </defs>
 <g id="figure_1">
  <g id="patch_1">
   <path d="M 0 365.728437 
L 505.135625 365.728437 
L 505.135625 0 
L 0 0 
z
" style="fill: #ffffff"/>
  </g>
  <g id="axes_1">
   <g id="patch_2">
    <path d="M 55.135625 336.24 
L 501.535625 336.24 
L 501.535625 3.6 
L 55.135625 3.6 
z
" style="fill: #ffffff"/>
   </g>
   <g id="matplotlib.axis_1">
    <g id="xtick_1">
     <g id="line2d_1">
      <defs>
       <path id="m0981fc1ffa" d="M 0 0 
L 0 -6 
" style="stroke: #000000"/>
      </defs>
      <g>
       <use xlink:href="#m0981fc1ffa" x="77.455625" y="336.24" style="stroke: #000000"/>
      </g>
     </g>
     <g id="line2d_2">
      <defs>
       <path id="m4bf63a7dae" d="M 0 0 
L 0 6 
" style="stroke: #000000"/>
      </defs>
      <g>
       <use xlink:href="#m4bf63a7dae" x="77.455625" y="3.6" style="stroke: #000000"/>
      </g>
     </g>
     <g id="text_1">
      <!-- 2014 -->
      <g transform="translate(66.003125 346.578594) scale(0.09 -0.09)">
       <defs>
        <path id="DejaVuSans-32" d="M 1228 531 
L 3431 531 
L 3431 0 
L 469 0 
L 469 531 
Q 828 903 1448 1529 
Q 2069 2156 2228 2338 
Q 2531 2678 2651 2914 
Q 2772 3150 2772 3378 
Q 2772 3750 2511 3984 
Q 2250 4219 1831 4219 
Q 1534 4219 1204 4116 
Q 875 4013 500 3803 
L 500 4441 
Q 881 4594 1212 4672 
Q 1544 4750 1819 4750 
Q 2544 4750 2975 4387 
Q 3406 4025 3406 3419 
Q 3406 3131 3298 2873 
Q 3191 2616 2906 2266 
Q 2828 2175 2409 1742 
Q 1991 1309 1228 531 
z
" transform="scale(0.015625)"/>
        <path id="DejaVuSans-30" d="M 2034 4250 
Q 1547 4250 1301 3770 
Q 1056 3291 1056 2328 
Q 1056 1369 1301 889 
Q 1547 409 2034 409 
Q 2525 409 2770 889 
Q 3016 1369 3016 2328 
Q 3016 3291 2770 3770 
Q 2525 4250 2034 4250 
z
M 2034 4750 
Q 2819 4750 3233 4129 
Q 3647 3509 3647 2328 
Q 3647 1150 3233 529 
Q 2819 -91 2034 -91 
Q 1250 -91 836 529 
Q 422 1150 422 2328 
Q 422 3509 836 4129 
Q 1250 4750 2034 4750 
z
" transform="scale(0.015625)"/>
        <path id="DejaVuSans-31" d="M 794 531 
L 1825 531 
L 1825 4091 
L 703 3866 
L 703 4441 
L 1819 4666 
L 2450 4666 
L 2450 531 
L 3481 531 
L 3481 0 
L 794 0 
L 794 531 
z
" transform="scale(0.015625)"/>
        <path id="DejaVuSans-34" d="M 2419 4116 
L 825 1625 
L 2419 1625 
L 2419 4116 
z
M 2253 4666 
L 3047 4666 
L 3047 1625 
L 3713 1625 
L 3713 1100 
L 3047 1100 
L 3047 0 
L 2419 0 
L 2419 1100 
L 313 1100 
L 313 1709 
L 2253 4666 
z
" transform="scale(0.015625)"/>
       </defs>
       <use xlink:href="#DejaVuSans-32"/>
       <use xlink:href="#DejaVuSans-30" x="63.623047"/>
       <use xlink:href="#DejaVuSans-31" x="127.246094"/>
       <use xlink:href="#DejaVuSans-34" x="190.869141"/>
      </g>
     </g>
    </g>
    <g id="xtick_2">
     <g id="line2d_3">
      <g>
       <use xlink:href="#m0981fc1ffa" x="122.095625" y="336.24" style="stroke: #000000"/>
      </g>
     </g>
     <g id="line2d_4">
      <g>
       <use xlink:href="#m4bf63a7dae" x="122.095625" y="3.6" style="stroke: #000000"/>
      </g>
     </g>
     <g id="text_2">
      <!-- 2015 -->
      <g transform="translate(110.643125 346.578594) scale(0.09 -0.09)">
       <defs>
        <path id="DejaVuSans-35" d="M 691 4666 
L 3169 4666 
L 3169 4134 
L 1269 4134 
L 1269 2991 
Q 1406 3038 1543 3061 
Q 1681 3084 1819 3084 
Q 2600 3084 3056 2656 
Q 3513 2228 3513 1497 
Q 3513 744 3044 326 
Q 2575 -91 1722 -91 
Q 1428 -91 1123 -41 
Q 819 9 494 109 
L 494 744 
Q 775 591 1075 516 
Q 1375 441 1709 441 
Q 2250 441 2565 725 
Q 2881 1009 2881 1497 
Q 2881 1984 2565 2268 
Q 2250 2553 1709 2553 
Q 1456 2553 1204 2497 
Q 953 2441 691 2322 
L 691 4666 
z
" transform="scale(0.015625)"/>
       </defs>
       <use xlink:href="#DejaVuSans-32"/>
       <use xlink:href="#DejaVuSans-30" x="63.623047"/>
       <use xlink:href="#DejaVuSans-31" x="127.246094"/>
       <use xlink:href="#DejaVuSans-35" x="190.869141"/>
      </g>
     </g>
    </g>
    <g id="xtick_3">
     <g id="line2d_5">
      <g>
       <use xlink:href="#m0981fc1ffa" x="166.735625" y="336.24" style="stroke: #000000"/>
      </g>
     </g>
     <g id="line2d_6">
      <g>
       <use xlink:href="#m4bf63a7dae" x="166.735625" y="3.6" style="stroke: #000000"/>
      </g>
     </g>
     <g id="text_3">
      <!-- 2016 -->
      <g transform="translate(155.283125 346.578594) scale(0.09 -0.09)">
       <defs>
        <path id="DejaVuSans-36" d="M 2113 2584 
Q 1688 2584 1439 2293 
Q 1191 2003 1191 1497 
Q 1191 994 1439 701 
Q 1688 409 2113 409 
Q 2538 409 2786 701 
Q 3034 994 3034 1497 
Q 3034 2003 2786 2293 
Q 2538 2584 2113 2584 
z
M 3366 4563 
L 3366 3988 
Q 3128 4100 2886 4159 
Q 2644 4219 2406 4219 
Q 1781 4219 1451 3797 
Q 1122 3375 1075 2522 
Q 1259 2794 1537 2939 
Q 1816 3084 2150 3084 
Q 2853 3084 3261 2657 
Q 3669 2231 3669 1497 
Q 3669 778 3244 343 
Q 2819 -91 2113 -91 
Q 1303 -91 875 529 
Q 447 1150 447 2328 
Q 447 3434 972 4092 
Q 1497 4750 2381 4750 
Q 2619 4750 2861 4703 
Q 3103 4656 3366 4563 
z
" transform="scale(0.015625)"/>
       </defs>
       <use xlink:href="#DejaVuSans-32"/>
       <use xlink:href="#DejaVuSans-30" x="63.623047"/>
       <use xlink:href="#DejaVuSans-31" x="127.246094"/>
       <use xlink:href="#DejaVuSans-36" x="190.869141"/>
      </g>
     </g>
    </g>
    <g id="xtick_4">
     <g id="line2d_7">
      <g>
       <use xlink:href="#m0981fc1ffa" x="211.375625" y="336.24" style="stroke: #000000"/>
      </g>
     </g>
     <g id="line2d_8">
      <g>
       <use xlink:href="#m4bf63a7dae" x="211.375625" y="3.6" style="stroke: #000000"/>
      </g>
     </g>
     <g id="text_4">
      <!-- 2017 -->
      <g transform="translate(199.923125 346.578594) scale(0.09 -0.09)">
       <defs>
        <path id="DejaVuSans-37" d="M 525 4666 
L 3525 4666 
L 3525 4397 
L 1831 0 
L 1172 0 
L 2766 4134 
L 525 4134 
L 525 4666 
z
" transform="scale(0.015625)"/>
       </defs>
       <use xlink:href="#DejaVuSans-32"/>
       <use xlink:href="#DejaVuSans-30" x="63.623047"/>
       <use xlink:href="#DejaVuSans-31" x="127.246094"/>
       <use xlink:href="#DejaVuSans-37" x="190.869141"/>
      </g>
     </g>
    </g>
    <g id="xtick_5">
     <g id="line2d_9">
      <g>
       <use xlink:href="#m0981fc1ffa" x="256.015625" y="336.24" style="stroke: #000000"/>
      </g>
     </g>
     <g id="line2d_10">
      <g>
       <use xlink:href="#m4bf63a7dae" x="256.015625" y="3.6" style="stroke: #000000"/>
      </g>
     </g>
     <g id="text_5">
      <!-- 2018 -->
      <g transform="translate(244.563125 346.578594) scale(0.09 -0.09)">
       <defs>
        <path id="DejaVuSans-38" d="M 2034 2216 
Q 1584 2216 1326 1975 
Q 1069 1734 1069 1313 
Q 1069 891 1326 650 
Q 1584 409 2034 409 
Q 2484 409 2743 651 
Q 3003 894 3003 1313 
Q 3003 1734 2745 1975 
Q 2488 2216 2034 2216 
z
M 1403 2484 
Q 997 2584 770 2862 
Q 544 3141 544 3541 
Q 544 4100 942 4425 
Q 1341 4750 2034 4750 
Q 2731 4750 3128 4425 
Q 3525 4100 3525 3541 
Q 3525 3141 3298 2862 
Q 3072 2584 2669 2484 
Q 3125 2378 3379 2068 
Q 3634 1759 3634 1313 
Q 3634 634 3220 271 
Q 2806 -91 2034 -91 
Q 1263 -91 848 271 
Q 434 634 434 1313 
Q 434 1759 690 2068 
Q 947 2378 1403 2484 
z
M 1172 3481 
Q 1172 3119 1398 2916 
Q 1625 2713 2034 2713 
Q 2441 2713 2670 2916 
Q 2900 3119 2900 3481 
Q 2900 3844 2670 4047 
Q 2441 4250 2034 4250 
Q 1625 4250 1398 4047 
Q 1172 3844 1172 3481 
z
" transform="scale(0.015625)"/>
       </defs>
       <use xlink:href="#DejaVuSans-32"/>
       <use xlink:href="#DejaVuSans-30" x="63.623047"/>
       <use xlink:href="#DejaVuSans-31" x="127.246094"/>
       <use xlink:href="#DejaVuSans-38" x="190.869141"/>
      </g>
     </g>
    </g>
    <g id="xtick_6">
     <g id="line2d_11">
      <g>
       <use xlink:href="#m0981fc1ffa" x="300.655625" y="336.24" style="stroke: #000000"/>
      </g>
     </g>
     <g id="line2d_12">
      <g>
       <use xlink:href="#m4bf63a7dae" x="300.655625" y="3.6" style="stroke: #000000"/>
      </g>
     </g>
     <g id="text_6">
      <!-- 2019 -->
      <g transform="translate(289.203125 346.578594) scale(0.09 -0.09)">
       <defs>
        <path id="DejaVuSans-39" d="M 703 97 
L 703 672 
Q 941 559 1184 500 
Q 1428 441 1663 441 
Q 2288 441 2617 861 
Q 2947 1281 2994 2138 
Q 2813 1869 2534 1725 
Q 2256 1581 1919 1581 
Q 1219 1581 811 2004 
Q 403 2428 403 3163 
Q 403 3881 828 4315 
Q 1253 4750 1959 4750 
Q 2769 4750 3195 4129 
Q 3622 3509 3622 2328 
Q 3622 1225 3098 567 
Q 2575 -91 1691 -91 
Q 1453 -91 1209 -44 
Q 966 3 703 97 
z
M 1959 2075 
Q 2384 2075 2632 2365 
Q 2881 2656 2881 3163 
Q 2881 3666 2632 3958 
Q 2384 4250 1959 4250 
Q 1534 4250 1286 3958 
Q 1038 3666 1038 3163 
Q 1038 2656 1286 2365 
Q 1534 2075 1959 2075 
z
" transform="scale(0.015625)"/>
       </defs>
       <use xlink:href="#DejaVuSans-32"/>
       <use xlink:href="#DejaVuSans-30" x="63.623047"/>
       <use xlink:href="#DejaVuSans-31" x="127.246094"/>
       <use xlink:href="#DejaVuSans-39" x="190.869141"/>
      </g>
     </g>
    </g>
    <g id="xtick_7">
     <g id="line2d_13">
      <g>
       <use xlink:href="#m0981fc1ffa" x="345.295625" y="336.24" style="stroke: #000000"/>
      </g>
     </g>
     <g id="line2d_14">
      <g>
       <use xlink:href="#m4bf63a7dae" x="345.295625" y="3.6" style="stroke: #000000"/>
      </g>
     </g>
     <g id="text_7">
      <!-- 2020 -->
      <g transform="translate(333.843125 346.578594) scale(0.09 -0.09)">
       <use xlink:href="#DejaVuSans-32"/>
       <use xlink:href="#DejaVuSans-30" x="63.623047"/>
       <use xlink:href="#DejaVuSans-32" x="127.246094"/>
       <use xlink:href="#DejaVuSans-30" x="190.869141"/>
      </g>
     </g>
    </g>
    <g id="xtick_8">
     <g id="line2d_15">
      <g>
       <use xlink:href="#m0981fc1ffa" x="389.935625" y="336.24" style="stroke: #000000"/>
      </g>
     </g>
     <g id="line2d_16">
      <g>
       <use xlink:href="#m4bf63a7dae" x="389.935625" y="3.6" style="stroke: #000000"/>
      </g>
     </g>
     <g id="text_8">
      <!-- 2021 -->
      <g transform="translate(378.483125 346.578594) scale(0.09 -0.09)">
       <use xlink:href="#DejaVuSans-32"/>
       <use xlink:href="#DejaVuSans-30" x="63.623047"/>
       <use xlink:href="#DejaVuSans-32" x="127.246094"/>
       <use xlink:href="#DejaVuSans-31" x="190.869141"/>
      </g>
     </g>
    </g>
    <g id="xtick_9">
     <g id="line2d_17">
      <g>
       <use xlink:href="#m0981fc1ffa" x="434.575625" y="336.24" style="stroke: #000000"/>
      </g>
     </g>
     <g id="line2d_18">
      <g>
       <use xlink:href="#m4bf63a7dae" x="434.575625" y="3.6" style="stroke: #000000"/>
      </g>
     </g>
     <g id="text_9">
      <!-- 2022 -->
      <g transform="translate(423.123125 346.578594) scale(0.09 -0.09)">
       <use xlink:href="#DejaVuSans-32"/>
       <use xlink:href="#DejaVuSans-30" x="63.623047"/>
       <use xlink:href="#DejaVuSans-32" x="127.246094"/>
       <use xlink:href="#DejaVuSans-32" x="190.869141"/>
      </g>
     </g>
    </g>
    <g id="xtick_10">
     <g id="line2d_19">
      <g>
       <use xlink:href="#m0981fc1ffa" x="479.215625" y="336.24" style="stroke: #000000"/>
      </g>
     </g>
     <g id="line2d_20">
      <g>
       <use xlink:href="#m4bf63a7dae" x="479.215625" y="3.6" style="stroke: #000000"/>
      </g>
     </g>
     <g id="text_10">
      <!-- 2023 -->
      <g transform="translate(467.763125 346.578594) scale(0.09 -0.09)">
       <defs>
        <path id="DejaVuSans-33" d="M 2597 2516 
Q 3050 2419 3304 2112 
Q 3559 1806 3559 1356 
Q 3559 666 3084 287 
Q 2609 -91 1734 -91 
Q 1441 -91 1130 -33 
Q 819 25 488 141 
L 488 750 
Q 750 597 1062 519 
Q 1375 441 1716 441 
Q 2309 441 2620 675 
Q 2931 909 2931 1356 
Q 2931 1769 2642 2001 
Q 2353 2234 1838 2234 
L 1294 2234 
L 1294 2753 
L 1863 2753 
Q 2328 2753 2575 2939 
Q 2822 3125 2822 3475 
Q 2822 3834 2567 4026 
Q 2313 4219 1838 4219 
Q 1578 4219 1281 4162 
Q 984 4106 628 3988 
L 628 4550 
Q 988 4650 1302 4700 
Q 1616 4750 1894 4750 
Q 2613 4750 3031 4423 
Q 3450 4097 3450 3541 
Q 3450 3153 3228 2886 
Q 3006 2619 2597 2516 
z
" transform="scale(0.015625)"/>
       </defs>
       <use xlink:href="#DejaVuSans-32"/>
       <use xlink:href="#DejaVuSans-30" x="63.623047"/>
       <use xlink:href="#DejaVuSans-32" x="127.246094"/>
       <use xlink:href="#DejaVuSans-33" x="190.869141"/>
      </g>
     </g>
    </g>
    <g id="text_11">
     <!-- Year -->
     <g transform="translate(267.748125 360.04875) scale(0.1 -0.1)">
      <defs>
       <path id="DejaVuSans-59" d="M -13 4666 
L 666 4666 
L 1959 2747 
L 3244 4666 
L 3922 4666 
L 2272 2222 
L 2272 0 
L 1638 0 
L 1638 2222 
L -13 4666 
z
" transform="scale(0.015625)"/>
       <path id="DejaVuSans-65" d="M 3597 1894 
L 3597 1613 
L 953 1613 
Q 991 1019 1311 708 
Q 1631 397 2203 397 
Q 2534 397 2845 478 
Q 3156 559 3463 722 
L 3463 178 
Q 3153 47 2828 -22 
Q 2503 -91 2169 -91 
Q 1331 -91 842 396 
Q 353 884 353 1716 
Q 353 2575 817 3079 
Q 1281 3584 2069 3584 
Q 2775 3584 3186 3129 
Q 3597 2675 3597 1894 
z
M 3022 2063 
Q 3016 2534 2758 2815 
Q 2500 3097 2075 3097 
Q 1594 3097 1305 2825 
Q 1016 2553 972 2059 
L 3022 2063 
z
" transform="scale(0.015625)"/>
       <path id="DejaVuSans-61" d="M 2194 1759 
Q 1497 1759 1228 1600 
Q 959 1441 959 1056 
Q 959 750 1161 570 
Q 1363 391 1709 391 
Q 2188 391 2477 730 
Q 2766 1069 2766 1631 
L 2766 1759 
L 2194 1759 
z
M 3341 1997 
L 3341 0 
L 2766 0 
L 2766 531 
Q 2569 213 2275 61 
Q 1981 -91 1556 -91 
Q 1019 -91 701 211 
Q 384 513 384 1019 
Q 384 1609 779 1909 
Q 1175 2209 1959 2209 
L 2766 2209 
L 2766 2266 
Q 2766 2663 2505 2880 
Q 2244 3097 1772 3097 
Q 1472 3097 1187 3025 
Q 903 2953 641 2809 
L 641 3341 
Q 956 3463 1253 3523 
Q 1550 3584 1831 3584 
Q 2591 3584 2966 3190 
Q 3341 2797 3341 1997 
z
" transform="scale(0.015625)"/>
       <path id="DejaVuSans-72" d="M 2631 2963 
Q 2534 3019 2420 3045 
Q 2306 3072 2169 3072 
Q 1681 3072 1420 2755 
Q 1159 2438 1159 1844 
L 1159 0 
L 581 0 
L 581 3500 
L 1159 3500 
L 1159 2956 
Q 1341 3275 1631 3429 
Q 1922 3584 2338 3584 
Q 2397 3584 2469 3576 
Q 2541 3569 2628 3553 
L 2631 2963 
z
" transform="scale(0.015625)"/>
      </defs>
      <use xlink:href="#DejaVuSans-59"/>
      <use xlink:href="#DejaVuSans-65" x="47.833984"/>
      <use xlink:href="#DejaVuSans-61" x="109.357422"/>
      <use xlink:href="#DejaVuSans-72" x="170.636719"/>
     </g>
    </g>
   </g>
   <g id="matplotlib.axis_2">
    <g id="ytick_1">
     <g id="line2d_21">
      <defs>
       <path id="m5938e8c73b" d="M 0 0 
L 6 0 
" style="stroke: #000000"/>
      </defs>
      <g>
       <use xlink:href="#m5938e8c73b" x="55.135625" y="280.608988" style="stroke: #000000"/>
      </g>
     </g>
     <g id="line2d_22">
      <defs>
       <path id="mc4782844a5" d="M 0 0 
L -6 0 
" style="stroke: #000000"/>
      </defs>
      <g>
       <use xlink:href="#mc4782844a5" x="501.535625" y="280.608988" style="stroke: #000000"/>
      </g>
     </g>
     <g id="text_12">
      <!-- 350000 -->
      <g transform="translate(17.278125 284.028284) scale(0.09 -0.09)">
       <use xlink:href="#DejaVuSans-33"/>
       <use xlink:href="#DejaVuSans-35" x="63.623047"/>
       <use xlink:href="#DejaVuSans-30" x="127.246094"/>
       <use xlink:href="#DejaVuSans-30" x="190.869141"/>
       <use xlink:href="#DejaVuSans-30" x="254.492188"/>
       <use xlink:href="#DejaVuSans-30" x="318.115234"/>
      </g>
     </g>
    </g>
    <g id="ytick_2">
     <g id="line2d_23">
      <g>
       <use xlink:href="#m5938e8c73b" x="55.135625" y="216.966463" style="stroke: #000000"/>
      </g>
     </g>
     <g id="line2d_24">
      <g>
       <use xlink:href="#mc4782844a5" x="501.535625" y="216.966463" style="stroke: #000000"/>
      </g>
     </g>
     <g id="text_13">
      <!-- 400000 -->
      <g transform="translate(17.278125 220.38576) scale(0.09 -0.09)">
       <use xlink:href="#DejaVuSans-34"/>
       <use xlink:href="#DejaVuSans-30" x="63.623047"/>
       <use xlink:href="#DejaVuSans-30" x="127.246094"/>
       <use xlink:href="#DejaVuSans-30" x="190.869141"/>
       <use xlink:href="#DejaVuSans-30" x="254.492188"/>
       <use xlink:href="#DejaVuSans-30" x="318.115234"/>
      </g>
     </g>
    </g>
    <g id="ytick_3">
     <g id="line2d_25">
      <g>
       <use xlink:href="#m5938e8c73b" x="55.135625" y="153.323939" style="stroke: #000000"/>
      </g>
     </g>
     <g id="line2d_26">
      <g>
       <use xlink:href="#mc4782844a5" x="501.535625" y="153.323939" style="stroke: #000000"/>
      </g>
     </g>
     <g id="text_14">
      <!-- 450000 -->
      <g transform="translate(17.278125 156.743236) scale(0.09 -0.09)">
       <use xlink:href="#DejaVuSans-34"/>
       <use xlink:href="#DejaVuSans-35" x="63.623047"/>
       <use xlink:href="#DejaVuSans-30" x="127.246094"/>
       <use xlink:href="#DejaVuSans-30" x="190.869141"/>
       <use xlink:href="#DejaVuSans-30" x="254.492188"/>
       <use xlink:href="#DejaVuSans-30" x="318.115234"/>
      </g>
     </g>
    </g>
    <g id="ytick_4">
     <g id="line2d_27">
      <g>
       <use xlink:href="#m5938e8c73b" x="55.135625" y="89.681415" style="stroke: #000000"/>
      </g>
     </g>
     <g id="line2d_28">
      <g>
       <use xlink:href="#mc4782844a5" x="501.535625" y="89.681415" style="stroke: #000000"/>
      </g>
     </g>
     <g id="text_15">
      <!-- 500000 -->
      <g transform="translate(17.278125 93.100711) scale(0.09 -0.09)">
       <use xlink:href="#DejaVuSans-35"/>
       <use xlink:href="#DejaVuSans-30" x="63.623047"/>
       <use xlink:href="#DejaVuSans-30" x="127.246094"/>
       <use xlink:href="#DejaVuSans-30" x="190.869141"/>
       <use xlink:href="#DejaVuSans-30" x="254.492188"/>
       <use xlink:href="#DejaVuSans-30" x="318.115234"/>
      </g>
     </g>
    </g>
    <g id="ytick_5">
     <g id="line2d_29">
      <g>
       <use xlink:href="#m5938e8c73b" x="55.135625" y="26.03889" style="stroke: #000000"/>
      </g>
     </g>
     <g id="line2d_30">
      <g>
       <use xlink:href="#mc4782844a5" x="501.535625" y="26.03889" style="stroke: #000000"/>
      </g>
     </g>
     <g id="text_16">
      <!-- 550000 -->
      <g transform="translate(17.278125 29.458187) scale(0.09 -0.09)">
       <use xlink:href="#DejaVuSans-35"/>
       <use xlink:href="#DejaVuSans-35" x="63.623047"/>
       <use xlink:href="#DejaVuSans-30" x="127.246094"/>
       <use xlink:href="#DejaVuSans-30" x="190.869141"/>
       <use xlink:href="#DejaVuSans-30" x="254.492188"/>
       <use xlink:href="#DejaVuSans-30" x="318.115234"/>
      </g>
     </g>
    </g>
    <g id="ytick_6">
     <g id="line2d_31">
      <defs>
       <path id="m4a25d2752e" d="M 0 0 
L 3 0 
" style="stroke: #000000"/>
      </defs>
      <g>
       <use xlink:href="#m4a25d2752e" x="55.135625" y="331.523007" style="stroke: #000000"/>
      </g>
     </g>
     <g id="line2d_32">
      <defs>
       <path id="m199c49a527" d="M 0 0 
L -3 0 
" style="stroke: #000000"/>
      </defs>
      <g>
       <use xlink:href="#m199c49a527" x="501.535625" y="331.523007" style="stroke: #000000"/>
      </g>
     </g>
    </g>
    <g id="ytick_7">
     <g id="line2d_33">
      <g>
       <use xlink:href="#m4a25d2752e" x="55.135625" y="318.794502" style="stroke: #000000"/>
      </g>
     </g>
     <g id="line2d_34">
      <g>
       <use xlink:href="#m199c49a527" x="501.535625" y="318.794502" style="stroke: #000000"/>
      </g>
     </g>
    </g>
    <g id="ytick_8">
     <g id="line2d_35">
      <g>
       <use xlink:href="#m4a25d2752e" x="55.135625" y="306.065997" style="stroke: #000000"/>
      </g>
     </g>
     <g id="line2d_36">
      <g>
       <use xlink:href="#m199c49a527" x="501.535625" y="306.065997" style="stroke: #000000"/>
      </g>
     </g>
    </g>
    <g id="ytick_9">
     <g id="line2d_37">
      <g>
       <use xlink:href="#m4a25d2752e" x="55.135625" y="293.337492" style="stroke: #000000"/>
      </g>
     </g>
     <g id="line2d_38">
      <g>
       <use xlink:href="#m199c49a527" x="501.535625" y="293.337492" style="stroke: #000000"/>
      </g>
     </g>
    </g>
    <g id="ytick_10">
     <g id="line2d_39">
      <g>
       <use xlink:href="#m4a25d2752e" x="55.135625" y="267.880483" style="stroke: #000000"/>
      </g>
     </g>
     <g id="line2d_40">
      <g>
       <use xlink:href="#m199c49a527" x="501.535625" y="267.880483" style="stroke: #000000"/>
      </g>
     </g>
    </g>
    <g id="ytick_11">
     <g id="line2d_41">
      <g>
       <use xlink:href="#m4a25d2752e" x="55.135625" y="255.151978" style="stroke: #000000"/>
      </g>
     </g>
     <g id="line2d_42">
      <g>
       <use xlink:href="#m199c49a527" x="501.535625" y="255.151978" style="stroke: #000000"/>
      </g>
     </g>
    </g>
    <g id="ytick_12">
     <g id="line2d_43">
      <g>
       <use xlink:href="#m4a25d2752e" x="55.135625" y="242.423473" style="stroke: #000000"/>
      </g>
     </g>
     <g id="line2d_44">
      <g>
       <use xlink:href="#m199c49a527" x="501.535625" y="242.423473" style="stroke: #000000"/>
      </g>
     </g>
    </g>
    <g id="ytick_13">
     <g id="line2d_45">
      <g>
       <use xlink:href="#m4a25d2752e" x="55.135625" y="229.694968" style="stroke: #000000"/>
      </g>
     </g>
     <g id="line2d_46">
      <g>
       <use xlink:href="#m199c49a527" x="501.535625" y="229.694968" style="stroke: #000000"/>
      </g>
     </g>
    </g>
    <g id="ytick_14">
     <g id="line2d_47">
      <g>
       <use xlink:href="#m4a25d2752e" x="55.135625" y="204.237958" style="stroke: #000000"/>
      </g>
     </g>
     <g id="line2d_48">
      <g>
       <use xlink:href="#m199c49a527" x="501.535625" y="204.237958" style="stroke: #000000"/>
      </g>
     </g>
    </g>
    <g id="ytick_15">
     <g id="line2d_49">
      <g>
       <use xlink:href="#m4a25d2752e" x="55.135625" y="191.509454" style="stroke: #000000"/>
      </g>
     </g>
     <g id="line2d_50">
      <g>
       <use xlink:href="#m199c49a527" x="501.535625" y="191.509454" style="stroke: #000000"/>
      </g>
     </g>
    </g>
    <g id="ytick_16">
     <g id="line2d_51">
      <g>
       <use xlink:href="#m4a25d2752e" x="55.135625" y="178.780949" style="stroke: #000000"/>
      </g>
     </g>
     <g id="line2d_52">
      <g>
       <use xlink:href="#m199c49a527" x="501.535625" y="178.780949" style="stroke: #000000"/>
      </g>
     </g>
    </g>
    <g id="ytick_17">
     <g id="line2d_53">
      <g>
       <use xlink:href="#m4a25d2752e" x="55.135625" y="166.052444" style="stroke: #000000"/>
      </g>
     </g>
     <g id="line2d_54">
      <g>
       <use xlink:href="#m199c49a527" x="501.535625" y="166.052444" style="stroke: #000000"/>
      </g>
     </g>
    </g>
    <g id="ytick_18">
     <g id="line2d_55">
      <g>
       <use xlink:href="#m4a25d2752e" x="55.135625" y="140.595434" style="stroke: #000000"/>
      </g>
     </g>
     <g id="line2d_56">
      <g>
       <use xlink:href="#m199c49a527" x="501.535625" y="140.595434" style="stroke: #000000"/>
      </g>
     </g>
    </g>
    <g id="ytick_19">
     <g id="line2d_57">
      <g>
       <use xlink:href="#m4a25d2752e" x="55.135625" y="127.866929" style="stroke: #000000"/>
      </g>
     </g>
     <g id="line2d_58">
      <g>
       <use xlink:href="#m199c49a527" x="501.535625" y="127.866929" style="stroke: #000000"/>
      </g>
     </g>
    </g>
    <g id="ytick_20">
     <g id="line2d_59">
      <g>
       <use xlink:href="#m4a25d2752e" x="55.135625" y="115.138424" style="stroke: #000000"/>
      </g>
     </g>
     <g id="line2d_60">
      <g>
       <use xlink:href="#m199c49a527" x="501.535625" y="115.138424" style="stroke: #000000"/>
      </g>
     </g>
    </g>
    <g id="ytick_21">
     <g id="line2d_61">
      <g>
       <use xlink:href="#m4a25d2752e" x="55.135625" y="102.409919" style="stroke: #000000"/>
      </g>
     </g>
     <g id="line2d_62">
      <g>
       <use xlink:href="#m199c49a527" x="501.535625" y="102.409919" style="stroke: #000000"/>
      </g>
     </g>
    </g>
    <g id="ytick_22">
     <g id="line2d_63">
      <g>
       <use xlink:href="#m4a25d2752e" x="55.135625" y="76.95291" style="stroke: #000000"/>
      </g>
     </g>
     <g id="line2d_64">
      <g>
       <use xlink:href="#m199c49a527" x="501.535625" y="76.95291" style="stroke: #000000"/>
      </g>
     </g>
    </g>
    <g id="ytick_23">
     <g id="line2d_65">
      <g>
       <use xlink:href="#m4a25d2752e" x="55.135625" y="64.224405" style="stroke: #000000"/>
      </g>
     </g>
     <g id="line2d_66">
      <g>
       <use xlink:href="#m199c49a527" x="501.535625" y="64.224405" style="stroke: #000000"/>
      </g>
     </g>
    </g>
    <g id="ytick_24">
     <g id="line2d_67">
      <g>
       <use xlink:href="#m4a25d2752e" x="55.135625" y="51.4959" style="stroke: #000000"/>
      </g>
     </g>
     <g id="line2d_68">
      <g>
       <use xlink:href="#m199c49a527" x="501.535625" y="51.4959" style="stroke: #000000"/>
      </g>
     </g>
    </g>
    <g id="ytick_25">
     <g id="line2d_69">
      <g>
       <use xlink:href="#m4a25d2752e" x="55.135625" y="38.767395" style="stroke: #000000"/>
      </g>
     </g>
     <g id="line2d_70">
      <g>
       <use xlink:href="#m199c49a527" x="501.535625" y="38.767395" style="stroke: #000000"/>
      </g>
     </g>
    </g>
    <g id="ytick_26">
     <g id="line2d_71">
      <g>
       <use xlink:href="#m4a25d2752e" x="55.135625" y="13.310385" style="stroke: #000000"/>
      </g>
     </g>
     <g id="line2d_72">
      <g>
       <use xlink:href="#m199c49a527" x="501.535625" y="13.310385" style="stroke: #000000"/>
      </g>
     </g>
    </g>
    <g id="text_17">
     <!-- Total Offences -->
     <g transform="translate(11.198438 205.317656) rotate(-90) scale(0.1 -0.1)">
      <defs>
       <path id="DejaVuSans-54" d="M -19 4666 
L 3928 4666 
L 3928 4134 
L 2272 4134 
L 2272 0 
L 1638 0 
L 1638 4134 
L -19 4134 
L -19 4666 
z
" transform="scale(0.015625)"/>
       <path id="DejaVuSans-6f" d="M 1959 3097 
Q 1497 3097 1228 2736 
Q 959 2375 959 1747 
Q 959 1119 1226 758 
Q 1494 397 1959 397 
Q 2419 397 2687 759 
Q 2956 1122 2956 1747 
Q 2956 2369 2687 2733 
Q 2419 3097 1959 3097 
z
M 1959 3584 
Q 2709 3584 3137 3096 
Q 3566 2609 3566 1747 
Q 3566 888 3137 398 
Q 2709 -91 1959 -91 
Q 1206 -91 779 398 
Q 353 888 353 1747 
Q 353 2609 779 3096 
Q 1206 3584 1959 3584 
z
" transform="scale(0.015625)"/>
       <path id="DejaVuSans-74" d="M 1172 4494 
L 1172 3500 
L 2356 3500 
L 2356 3053 
L 1172 3053 
L 1172 1153 
Q 1172 725 1289 603 
Q 1406 481 1766 481 
L 2356 481 
L 2356 0 
L 1766 0 
Q 1100 0 847 248 
Q 594 497 594 1153 
L 594 3053 
L 172 3053 
L 172 3500 
L 594 3500 
L 594 4494 
L 1172 4494 
z
" transform="scale(0.015625)"/>
       <path id="DejaVuSans-6c" d="M 603 4863 
L 1178 4863 
L 1178 0 
L 603 0 
L 603 4863 
z
" transform="scale(0.015625)"/>
       <path id="DejaVuSans-20" transform="scale(0.015625)"/>
       <path id="DejaVuSans-4f" d="M 2522 4238 
Q 1834 4238 1429 3725 
Q 1025 3213 1025 2328 
Q 1025 1447 1429 934 
Q 1834 422 2522 422 
Q 3209 422 3611 934 
Q 4013 1447 4013 2328 
Q 4013 3213 3611 3725 
Q 3209 4238 2522 4238 
z
M 2522 4750 
Q 3503 4750 4090 4092 
Q 4678 3434 4678 2328 
Q 4678 1225 4090 567 
Q 3503 -91 2522 -91 
Q 1538 -91 948 565 
Q 359 1222 359 2328 
Q 359 3434 948 4092 
Q 1538 4750 2522 4750 
z
" transform="scale(0.015625)"/>
       <path id="DejaVuSans-66" d="M 2375 4863 
L 2375 4384 
L 1825 4384 
Q 1516 4384 1395 4259 
Q 1275 4134 1275 3809 
L 1275 3500 
L 2222 3500 
L 2222 3053 
L 1275 3053 
L 1275 0 
L 697 0 
L 697 3053 
L 147 3053 
L 147 3500 
L 697 3500 
L 697 3744 
Q 697 4328 969 4595 
Q 1241 4863 1831 4863 
L 2375 4863 
z
" transform="scale(0.015625)"/>
       <path id="DejaVuSans-6e" d="M 3513 2113 
L 3513 0 
L 2938 0 
L 2938 2094 
Q 2938 2591 2744 2837 
Q 2550 3084 2163 3084 
Q 1697 3084 1428 2787 
Q 1159 2491 1159 1978 
L 1159 0 
L 581 0 
L 581 3500 
L 1159 3500 
L 1159 2956 
Q 1366 3272 1645 3428 
Q 1925 3584 2291 3584 
Q 2894 3584 3203 3211 
Q 3513 2838 3513 2113 
z
" transform="scale(0.015625)"/>
       <path id="DejaVuSans-63" d="M 3122 3366 
L 3122 2828 
Q 2878 2963 2633 3030 
Q 2388 3097 2138 3097 
Q 1578 3097 1268 2742 
Q 959 2388 959 1747 
Q 959 1106 1268 751 
Q 1578 397 2138 397 
Q 2388 397 2633 464 
Q 2878 531 3122 666 
L 3122 134 
Q 2881 22 2623 -34 
Q 2366 -91 2075 -91 
Q 1284 -91 818 406 
Q 353 903 353 1747 
Q 353 2603 823 3093 
Q 1294 3584 2113 3584 
Q 2378 3584 2631 3529 
Q 2884 3475 3122 3366 
z
" transform="scale(0.015625)"/>
       <path id="DejaVuSans-73" d="M 2834 3397 
L 2834 2853 
Q 2591 2978 2328 3040 
Q 2066 3103 1784 3103 
Q 1356 3103 1142 2972 
Q 928 2841 928 2578 
Q 928 2378 1081 2264 
Q 1234 2150 1697 2047 
L 1894 2003 
Q 2506 1872 2764 1633 
Q 3022 1394 3022 966 
Q 3022 478 2636 193 
Q 2250 -91 1575 -91 
Q 1294 -91 989 -36 
Q 684 19 347 128 
L 347 722 
Q 666 556 975 473 
Q 1284 391 1588 391 
Q 1994 391 2212 530 
Q 2431 669 2431 922 
Q 2431 1156 2273 1281 
Q 2116 1406 1581 1522 
L 1381 1569 
Q 847 1681 609 1914 
Q 372 2147 372 2553 
Q 372 3047 722 3315 
Q 1072 3584 1716 3584 
Q 2034 3584 2315 3537 
Q 2597 3491 2834 3397 
z
" transform="scale(0.015625)"/>
      </defs>
      <use xlink:href="#DejaVuSans-54"/>
      <use xlink:href="#DejaVuSans-6f" x="44.083984"/>
      <use xlink:href="#DejaVuSans-74" x="105.265625"/>
      <use xlink:href="#DejaVuSans-61" x="144.474609"/>
      <use xlink:href="#DejaVuSans-6c" x="205.753906"/>
      <use xlink:href="#DejaVuSans-20" x="233.537109"/>
      <use xlink:href="#DejaVuSans-4f" x="265.324219"/>
      <use xlink:href="#DejaVuSans-66" x="344.035156"/>
      <use xlink:href="#DejaVuSans-66" x="379.240234"/>
      <use xlink:href="#DejaVuSans-65" x="414.445312"/>
      <use xlink:href="#DejaVuSans-6e" x="475.96875"/>
      <use xlink:href="#DejaVuSans-63" x="539.347656"/>
      <use xlink:href="#DejaVuSans-65" x="594.328125"/>
      <use xlink:href="#DejaVuSans-73" x="655.851562"/>
     </g>
    </g>
   </g>
   <g id="patch_3">
    <path d="M 59.599625 132.61307 
L 95.311625 132.61307 
L 95.311625 101.074063 
L 59.599625 101.074063 
L 59.599625 132.61307 
z
" clip-path="url(#pb246ca91f5)" style="fill: #1f5c92; stroke: #353535; stroke-linejoin: miter"/>
   </g>
   <g id="line2d_73">
    <path d="M 77.455625 132.61307 
L 77.455625 150.242368 
" clip-path="url(#pb246ca91f5)" style="fill: none; stroke: #353535"/>
   </g>
   <g id="line2d_74">
    <path d="M 77.455625 101.074063 
L 77.455625 82.449078 
" clip-path="url(#pb246ca91f5)" style="fill: none; stroke: #353535"/>
   </g>
   <g id="line2d_75">
    <path d="M 68.527625 150.242368 
L 86.383625 150.242368 
" clip-path="url(#pb246ca91f5)" style="fill: none; stroke: #353535; stroke-linecap: square"/>
   </g>
   <g id="line2d_76">
    <path d="M 68.527625 82.449078 
L 86.383625 82.449078 
" clip-path="url(#pb246ca91f5)" style="fill: none; stroke: #353535; stroke-linecap: square"/>
   </g>
   <g id="line2d_77">
    <defs>
     <path id="mf6f4fcc3b3" d="M 0 3 
C 0.795609 3 1.55874 2.683901 2.12132 2.12132 
C 2.683901 1.55874 3 0.795609 3 0 
C 3 -0.795609 2.683901 -1.55874 2.12132 -2.12132 
C 1.55874 -2.683901 0.795609 -3 0 -3 
C -0.795609 -3 -1.55874 -2.683901 -2.12132 -2.12132 
C -2.683901 -1.55874 -3 -0.795609 -3 0 
C -3 0.795609 -2.683901 1.55874 -2.12132 2.12132 
C -1.55874 2.683901 -0.795609 3 0 3 
z
" style="stroke: #353535"/>
    </defs>
    <g clip-path="url(#pb246ca91f5)">
     <use xlink:href="#mf6f4fcc3b3" x="77.455625" y="208.782035" style="fill-opacity: 0; stroke: #353535"/>
    </g>
   </g>
   <g id="patch_4">
    <path d="M 104.239625 120.591952 
L 139.951625 120.591952 
L 139.951625 37.947043 
L 104.239625 37.947043 
L 104.239625 120.591952 
z
" clip-path="url(#pb246ca91f5)" style="fill: #1f5c92; stroke: #353535; stroke-linejoin: miter"/>
   </g>
   <g id="line2d_78">
    <path d="M 122.095625 120.591952 
L 122.095625 161.606377 
" clip-path="url(#pb246ca91f5)" style="fill: none; stroke: #353535"/>
   </g>
   <g id="line2d_79">
    <path d="M 122.095625 37.947043 
L 122.095625 18.72 
" clip-path="url(#pb246ca91f5)" style="fill: none; stroke: #353535"/>
   </g>
   <g id="line2d_80">
    <path d="M 113.167625 161.606377 
L 131.023625 161.606377 
" clip-path="url(#pb246ca91f5)" style="fill: none; stroke: #353535; stroke-linecap: square"/>
   </g>
   <g id="line2d_81">
    <path d="M 113.167625 18.72 
L 131.023625 18.72 
" clip-path="url(#pb246ca91f5)" style="fill: none; stroke: #353535; stroke-linecap: square"/>
   </g>
   <g id="line2d_82"/>
   <g id="patch_5">
    <path d="M 148.879625 139.410092 
L 184.591625 139.410092 
L 184.591625 98.154462 
L 148.879625 98.154462 
L 148.879625 139.410092 
z
" clip-path="url(#pb246ca91f5)" style="fill: #1f5c92; stroke: #353535; stroke-linejoin: miter"/>
   </g>
   <g id="line2d_83">
    <path d="M 166.735625 139.410092 
L 166.735625 182.664415 
" clip-path="url(#pb246ca91f5)" style="fill: none; stroke: #353535"/>
   </g>
   <g id="line2d_84">
    <path d="M 166.735625 98.154462 
L 166.735625 65.928752 
" clip-path="url(#pb246ca91f5)" style="fill: none; stroke: #353535"/>
   </g>
   <g id="line2d_85">
    <path d="M 157.807625 182.664415 
L 175.663625 182.664415 
" clip-path="url(#pb246ca91f5)" style="fill: none; stroke: #353535; stroke-linecap: square"/>
   </g>
   <g id="line2d_86">
    <path d="M 157.807625 65.928752 
L 175.663625 65.928752 
" clip-path="url(#pb246ca91f5)" style="fill: none; stroke: #353535; stroke-linecap: square"/>
   </g>
   <g id="line2d_87">
    <g clip-path="url(#pb246ca91f5)">
     <use xlink:href="#mf6f4fcc3b3" x="166.735625" y="208.61911" style="fill-opacity: 0; stroke: #353535"/>
    </g>
   </g>
   <g id="patch_6">
    <path d="M 193.519625 176.691565 
L 229.231625 176.691565 
L 229.231625 126.841648 
L 193.519625 126.841648 
L 193.519625 176.691565 
z
" clip-path="url(#pb246ca91f5)" style="fill: #1f5c92; stroke: #353535; stroke-linejoin: miter"/>
   </g>
   <g id="line2d_88">
    <path d="M 211.375625 176.691565 
L 211.375625 249.284137 
" clip-path="url(#pb246ca91f5)" style="fill: none; stroke: #353535"/>
   </g>
   <g id="line2d_89">
    <path d="M 211.375625 126.841648 
L 211.375625 111.233319 
" clip-path="url(#pb246ca91f5)" style="fill: none; stroke: #353535"/>
   </g>
   <g id="line2d_90">
    <path d="M 202.447625 249.284137 
L 220.303625 249.284137 
" clip-path="url(#pb246ca91f5)" style="fill: none; stroke: #353535; stroke-linecap: square"/>
   </g>
   <g id="line2d_91">
    <path d="M 202.447625 111.233319 
L 220.303625 111.233319 
" clip-path="url(#pb246ca91f5)" style="fill: none; stroke: #353535; stroke-linecap: square"/>
   </g>
   <g id="line2d_92"/>
   <g id="patch_7">
    <path d="M 238.159625 199.694519 
L 273.871625 199.694519 
L 273.871625 146.663749 
L 238.159625 146.663749 
L 238.159625 199.694519 
z
" clip-path="url(#pb246ca91f5)" style="fill: #1f5c92; stroke: #353535; stroke-linejoin: miter"/>
   </g>
   <g id="line2d_93">
    <path d="M 256.015625 199.694519 
L 256.015625 279.115934 
" clip-path="url(#pb246ca91f5)" style="fill: none; stroke: #353535"/>
   </g>
   <g id="line2d_94">
    <path d="M 256.015625 146.663749 
L 256.015625 134.513754 
" clip-path="url(#pb246ca91f5)" style="fill: none; stroke: #353535"/>
   </g>
   <g id="line2d_95">
    <path d="M 247.087625 279.115934 
L 264.943625 279.115934 
" clip-path="url(#pb246ca91f5)" style="fill: none; stroke: #353535; stroke-linecap: square"/>
   </g>
   <g id="line2d_96">
    <path d="M 247.087625 134.513754 
L 264.943625 134.513754 
" clip-path="url(#pb246ca91f5)" style="fill: none; stroke: #353535; stroke-linecap: square"/>
   </g>
   <g id="line2d_97"/>
   <g id="patch_8">
    <path d="M 282.799625 200.943503 
L 318.511625 200.943503 
L 318.511625 155.572748 
L 282.799625 155.572748 
L 282.799625 200.943503 
z
" clip-path="url(#pb246ca91f5)" style="fill: #1f5c92; stroke: #353535; stroke-linejoin: miter"/>
   </g>
   <g id="line2d_98">
    <path d="M 300.655625 200.943503 
L 300.655625 223.116877 
" clip-path="url(#pb246ca91f5)" style="fill: none; stroke: #353535"/>
   </g>
   <g id="line2d_99">
    <path d="M 300.655625 155.572748 
L 300.655625 146.267256 
" clip-path="url(#pb246ca91f5)" style="fill: none; stroke: #353535"/>
   </g>
   <g id="line2d_100">
    <path d="M 291.727625 223.116877 
L 309.583625 223.116877 
" clip-path="url(#pb246ca91f5)" style="fill: none; stroke: #353535; stroke-linecap: square"/>
   </g>
   <g id="line2d_101">
    <path d="M 291.727625 146.267256 
L 309.583625 146.267256 
" clip-path="url(#pb246ca91f5)" style="fill: none; stroke: #353535; stroke-linecap: square"/>
   </g>
   <g id="line2d_102">
    <g clip-path="url(#pb246ca91f5)">
     <use xlink:href="#mf6f4fcc3b3" x="300.655625" y="270.473279" style="fill-opacity: 0; stroke: #353535"/>
    </g>
   </g>
   <g id="patch_9">
    <path d="M 327.439625 249.432424 
L 363.151625 249.432424 
L 363.151625 177.36172 
L 327.439625 177.36172 
L 327.439625 249.432424 
z
" clip-path="url(#pb246ca91f5)" style="fill: #1f5c92; stroke: #353535; stroke-linejoin: miter"/>
   </g>
   <g id="line2d_103">
    <path d="M 345.295625 249.432424 
L 345.295625 321.12 
" clip-path="url(#pb246ca91f5)" style="fill: none; stroke: #353535"/>
   </g>
   <g id="line2d_104">
    <path d="M 345.295625 177.36172 
L 345.295625 156.219674 
" clip-path="url(#pb246ca91f5)" style="fill: none; stroke: #353535"/>
   </g>
   <g id="line2d_105">
    <path d="M 336.367625 321.12 
L 354.223625 321.12 
" clip-path="url(#pb246ca91f5)" style="fill: none; stroke: #353535; stroke-linecap: square"/>
   </g>
   <g id="line2d_106">
    <path d="M 336.367625 156.219674 
L 354.223625 156.219674 
" clip-path="url(#pb246ca91f5)" style="fill: none; stroke: #353535; stroke-linecap: square"/>
   </g>
   <g id="line2d_107"/>
   <g id="patch_10">
    <path d="M 372.079625 259.180231 
L 407.791625 259.180231 
L 407.791625 185.648932 
L 372.079625 185.648932 
L 372.079625 259.180231 
z
" clip-path="url(#pb246ca91f5)" style="fill: #1f5c92; stroke: #353535; stroke-linejoin: miter"/>
   </g>
   <g id="line2d_108">
    <path d="M 389.935625 259.180231 
L 389.935625 298.453079 
" clip-path="url(#pb246ca91f5)" style="fill: none; stroke: #353535"/>
   </g>
   <g id="line2d_109">
    <path d="M 389.935625 185.648932 
L 389.935625 179.963427 
" clip-path="url(#pb246ca91f5)" style="fill: none; stroke: #353535"/>
   </g>
   <g id="line2d_110">
    <path d="M 381.007625 298.453079 
L 398.863625 298.453079 
" clip-path="url(#pb246ca91f5)" style="fill: none; stroke: #353535; stroke-linecap: square"/>
   </g>
   <g id="line2d_111">
    <path d="M 381.007625 179.963427 
L 398.863625 179.963427 
" clip-path="url(#pb246ca91f5)" style="fill: none; stroke: #353535; stroke-linecap: square"/>
   </g>
   <g id="line2d_112"/>
   <g id="patch_11">
    <path d="M 416.719625 180.91711 
L 452.431625 180.91711 
L 452.431625 129.951222 
L 416.719625 129.951222 
L 416.719625 180.91711 
z
" clip-path="url(#pb246ca91f5)" style="fill: #1f5c92; stroke: #353535; stroke-linejoin: miter"/>
   </g>
   <g id="line2d_113">
    <path d="M 434.575625 180.91711 
L 434.575625 229.033086 
" clip-path="url(#pb246ca91f5)" style="fill: none; stroke: #353535"/>
   </g>
   <g id="line2d_114">
    <path d="M 434.575625 129.951222 
L 434.575625 99.436541 
" clip-path="url(#pb246ca91f5)" style="fill: none; stroke: #353535"/>
   </g>
   <g id="line2d_115">
    <path d="M 425.647625 229.033086 
L 443.503625 229.033086 
" clip-path="url(#pb246ca91f5)" style="fill: none; stroke: #353535; stroke-linecap: square"/>
   </g>
   <g id="line2d_116">
    <path d="M 425.647625 99.436541 
L 443.503625 99.436541 
" clip-path="url(#pb246ca91f5)" style="fill: none; stroke: #353535; stroke-linecap: square"/>
   </g>
   <g id="line2d_117">
    <g clip-path="url(#pb246ca91f5)">
     <use xlink:href="#mf6f4fcc3b3" x="434.575625" y="258.92598" style="fill-opacity: 0; stroke: #353535"/>
    </g>
   </g>
   <g id="patch_12">
    <path d="M 461.359625 168.83585 
L 497.071625 168.83585 
L 497.071625 110.24336 
L 461.359625 110.24336 
L 461.359625 168.83585 
z
" clip-path="url(#pb246ca91f5)" style="fill: #1f5c92; stroke: #353535; stroke-linejoin: miter"/>
   </g>
   <g id="line2d_118">
    <path d="M 479.215625 168.83585 
L 479.215625 256.624666 
" clip-path="url(#pb246ca91f5)" style="fill: none; stroke: #353535"/>
   </g>
   <g id="line2d_119">
    <path d="M 479.215625 110.24336 
L 479.215625 93.395592 
" clip-path="url(#pb246ca91f5)" style="fill: none; stroke: #353535"/>
   </g>
   <g id="line2d_120">
    <path d="M 470.287625 256.624666 
L 488.143625 256.624666 
" clip-path="url(#pb246ca91f5)" style="fill: none; stroke: #353535; stroke-linecap: square"/>
   </g>
   <g id="line2d_121">
    <path d="M 470.287625 93.395592 
L 488.143625 93.395592 
" clip-path="url(#pb246ca91f5)" style="fill: none; stroke: #353535; stroke-linecap: square"/>
   </g>
   <g id="line2d_122"/>
   <g id="line2d_123">
    <path d="M 59.599625 116.332995 
L 95.311625 116.332995 
" clip-path="url(#pb246ca91f5)" style="fill: none; stroke: #353535"/>
   </g>
   <g id="line2d_124">
    <path d="M 104.239625 76.313302 
L 139.951625 76.313302 
" clip-path="url(#pb246ca91f5)" style="fill: none; stroke: #353535"/>
   </g>
   <g id="line2d_125">
    <path d="M 148.879625 113.078952 
L 184.591625 113.078952 
" clip-path="url(#pb246ca91f5)" style="fill: none; stroke: #353535"/>
   </g>
   <g id="line2d_126">
    <path d="M 193.519625 169.155653 
L 229.231625 169.155653 
" clip-path="url(#pb246ca91f5)" style="fill: none; stroke: #353535"/>
   </g>
   <g id="line2d_127">
    <path d="M 238.159625 174.683007 
L 273.871625 174.683007 
" clip-path="url(#pb246ca91f5)" style="fill: none; stroke: #353535"/>
   </g>
   <g id="line2d_128">
    <path d="M 282.799625 180.99189 
L 318.511625 180.99189 
" clip-path="url(#pb246ca91f5)" style="fill: none; stroke: #353535"/>
   </g>
   <g id="line2d_129">
    <path d="M 327.439625 198.620869 
L 363.151625 198.620869 
" clip-path="url(#pb246ca91f5)" style="fill: none; stroke: #353535"/>
   </g>
   <g id="line2d_130">
    <path d="M 372.079625 222.444175 
L 407.791625 222.444175 
" clip-path="url(#pb246ca91f5)" style="fill: none; stroke: #353535"/>
   </g>
   <g id="line2d_131">
    <path d="M 416.719625 148.785591 
L 452.431625 148.785591 
" clip-path="url(#pb246ca91f5)" style="fill: none; stroke: #353535"/>
   </g>
   <g id="line2d_132">
    <path d="M 461.359625 127.504167 
L 497.071625 127.504167 
" clip-path="url(#pb246ca91f5)" style="fill: none; stroke: #353535"/>
   </g>
   <g id="patch_13">
    <path d="M 55.135625 336.24 
L 55.135625 3.6 
" style="fill: none; stroke: #000000; stroke-linejoin: miter; stroke-linecap: square"/>
   </g>
   <g id="patch_14">
    <path d="M 501.535625 336.24 
L 501.535625 3.6 
" style="fill: none; stroke: #000000; stroke-linejoin: miter; stroke-linecap: square"/>
   </g>
   <g id="patch_15">
    <path d="M 55.135625 336.24 
L 501.535625 336.24 
" style="fill: none; stroke: #000000; stroke-linejoin: miter; stroke-linecap: square"/>
   </g>
   <g id="patch_16">
    <path d="M 55.135625 3.6 
L 501.535625 3.6 
" style="fill: none; stroke: #000000; stroke-linejoin: miter; stroke-linecap: square"/>
   </g>
  </g>
 </g>
 <defs>
  <clipPath id="pb246ca91f5">
   <rect x="55.135625" y="3.6" width="446.4" height="332.64"/>
  </clipPath>
 </defs>
</svg>
