<?xml version="1.0" encoding="utf-8" standalone="no"?>
<!DOCTYPE svg PUBLIC "-//W3C//DTD SVG 1.1//EN"
  "http://www.w3.org/Graphics/SVG/1.1/DTD/svg11.dtd">
<svg xmlns:xlink="http://www.w3.org/1999/xlink" width="505.135625pt" height="365.728437pt" viewBox="0 0 505.135625 365.728437" xmlns="http://www.w3.org/2000/svg" version="1.1">
 <metadata>
  <rdf:RDF xmlns:dc="http://purl.org/dc/elements/1.1/" xmlns:cc="http://creativecommons.org/ns#" xmlns:rdf="http://www.w3.org/1999/02/22-rdf-syntax-ns#">
   <cc:Work>
    <dc:type rdf:resource="http://purl.org/dc/dcmitype/StillImage"/>
    <dc:date>1980-01-01T00:00:00+00:00</dc:date>
    <dc:format>image/svg+xml</dc:format>
    <dc:creator>
     <cc:Agent>
      <dc:title>Matplotlib v3.9.2, https://matplotlib.org/</dc:title>
     </cc:Agent>
    </dc:creator>
   </cc:Work>
  </rdf:RDF>
 </metadata>
 <defs>
  <style type="text/css">*{stroke-linejoin: round; stroke-linecap: butt}</style>
 </defs>
 <g id="figure_1">
  <g id="patch_1">
   <path d="M 0 365.728437 
L 505.135625 365.728437 
L 505.135625 0 
L 0 0 
z
" style="fill: #ffffff"/>
  </g>
  <g id="axes_1">
   <g id="patch_2">
    <path d="M 55.135625 336.24 
L 501.535625 336.24 
L 501.535625 3.6 
L 55.135625 3.6 
z
" style="fill: #ffffff"/>
   </g>
   <g id="matplotlib.axis_1">
    <g id="xtick_1">
     <g id="line2d_1">
      <defs>
       <path id="m41df6d4909" d="M 0 0 
L 0 -6 
" style="stroke: #000000"/>
      </defs>
      <g>
       <use xlink:href="#m41df6d4909" x="73.735625" y="336.24" style="stroke: #000000"/>
      </g>
     </g>
     <g id="line2d_2">
      <defs>
       <path id="mb643a2cbd2" d="M 0 0 
L 0 6 
" style="stroke: #000000"/>
      </defs>
      <g>
       <use xlink:href="#mb643a2cbd2" x="73.735625" y="3.6" style="stroke: #000000"/>
      </g>
     </g>
     <g id="text_1">
      <!-- Jan -->
      <g transform="translate(66.798594 346.578594) scale(0.09 -0.09)">
       <defs>
        <path id="DejaVuSans-4a" d="M 628 4666 
L 1259 4666 
L 1259 325 
Q 1259 -519 939 -900 
Q 619 -1281 -91 -1281 
L -331 -1281 
L -331 -750 
L -134 -750 
Q 284 -750 456 -515 
Q 628 -281 628 325 
L 628 4666 
z
" transform="scale(0.015625)"/>
        <path id="DejaVuSans-61" d="M 2194 1759 
Q 1497 1759 1228 1600 
Q 959 1441 959 1056 
Q 959 750 1161 570 
Q 1363 391 1709 391 
Q 2188 391 2477 730 
Q 2766 1069 2766 1631 
L 2766 1759 
L 2194 1759 
z
M 3341 1997 
L 3341 0 
L 2766 0 
L 2766 531 
Q 2569 213 2275 61 
Q 1981 -91 1556 -91 
Q 1019 -91 701 211 
Q 384 513 384 1019 
Q 384 1609 779 1909 
Q 1175 2209 1959 2209 
L 2766 2209 
L 2766 2266 
Q 2766 2663 2505 2880 
Q 2244 3097 1772 3097 
Q 1472 3097 1187 3025 
Q 903 2953 641 2809 
L 641 3341 
Q 956 3463 1253 3523 
Q 1550 3584 1831 3584 
Q 2591 3584 2966 3190 
Q 3341 2797 3341 1997 
z
" transform="scale(0.015625)"/>
        <path id="DejaVuSans-6e" d="M 3513 2113 
L 3513 0 
L 2938 0 
L 2938 2094 
Q 2938 2591 2744 2837 
Q 2550 3084 2163 3084 
Q 1697 3084 1428 2787 
Q 1159 2491 1159 1978 
L 1159 0 
L 581 0 
L 581 3500 
L 1159 3500 
L 1159 2956 
Q 1366 3272 1645 3428 
Q 1925 3584 2291 3584 
Q 2894 3584 3203 3211 
Q 3513 2838 3513 2113 
z
" transform="scale(0.015625)"/>
       </defs>
       <use xlink:href="#DejaVuSans-4a"/>
       <use xlink:href="#DejaVuSans-61" x="29.492188"/>
       <use xlink:href="#DejaVuSans-6e" x="90.771484"/>
      </g>
     </g>
    </g>
    <g id="xtick_2">
     <g id="line2d_3">
      <g>
       <use xlink:href="#m41df6d4909" x="110.935625" y="336.24" style="stroke: #000000"/>
      </g>
     </g>
     <g id="line2d_4">
      <g>
       <use xlink:href="#mb643a2cbd2" x="110.935625" y="3.6" style="stroke: #000000"/>
      </g>
     </g>
     <g id="text_2">
      <!-- Feb -->
      <g transform="translate(102.969219 346.578594) scale(0.09 -0.09)">
       <defs>
        <path id="DejaVuSans-46" d="M 628 4666 
L 3309 4666 
L 3309 4134 
L 1259 4134 
L 1259 2759 
L 3109 2759 
L 3109 2228 
L 1259 2228 
L 1259 0 
L 628 0 
L 628 4666 
z
" transform="scale(0.015625)"/>
        <path id="DejaVuSans-65" d="M 3597 1894 
L 3597 1613 
L 953 1613 
Q 991 1019 1311 708 
Q 1631 397 2203 397 
Q 2534 397 2845 478 
Q 3156 559 3463 722 
L 3463 178 
Q 3153 47 2828 -22 
Q 2503 -91 2169 -91 
Q 1331 -91 842 396 
Q 353 884 353 1716 
Q 353 2575 817 3079 
Q 1281 3584 2069 3584 
Q 2775 3584 3186 3129 
Q 3597 2675 3597 1894 
z
M 3022 2063 
Q 3016 2534 2758 2815 
Q 2500 3097 2075 3097 
Q 1594 3097 1305 2825 
Q 1016 2553 972 2059 
L 3022 2063 
z
" transform="scale(0.015625)"/>
        <path id="DejaVuSans-62" d="M 3116 1747 
Q 3116 2381 2855 2742 
Q 2594 3103 2138 3103 
Q 1681 3103 1420 2742 
Q 1159 2381 1159 1747 
Q 1159 1113 1420 752 
Q 1681 391 2138 391 
Q 2594 391 2855 752 
Q 3116 1113 3116 1747 
z
M 1159 2969 
Q 1341 3281 1617 3432 
Q 1894 3584 2278 3584 
Q 2916 3584 3314 3078 
Q 3713 2572 3713 1747 
Q 3713 922 3314 415 
Q 2916 -91 2278 -91 
Q 1894 -91 1617 61 
Q 1341 213 1159 525 
L 1159 0 
L 581 0 
L 581 4863 
L 1159 4863 
L 1159 2969 
z
" transform="scale(0.015625)"/>
       </defs>
       <use xlink:href="#DejaVuSans-46"/>
       <use xlink:href="#DejaVuSans-65" x="52.019531"/>
       <use xlink:href="#DejaVuSans-62" x="113.542969"/>
      </g>
     </g>
    </g>
    <g id="xtick_3">
     <g id="line2d_5">
      <g>
       <use xlink:href="#m41df6d4909" x="148.135625" y="336.24" style="stroke: #000000"/>
      </g>
     </g>
     <g id="line2d_6">
      <g>
       <use xlink:href="#mb643a2cbd2" x="148.135625" y="3.6" style="stroke: #000000"/>
      </g>
     </g>
     <g id="text_3">
      <!-- Mar -->
      <g transform="translate(139.645391 346.578594) scale(0.09 -0.09)">
       <defs>
        <path id="DejaVuSans-4d" d="M 628 4666 
L 1569 4666 
L 2759 1491 
L 3956 4666 
L 4897 4666 
L 4897 0 
L 4281 0 
L 4281 4097 
L 3078 897 
L 2444 897 
L 1241 4097 
L 1241 0 
L 628 0 
L 628 4666 
z
" transform="scale(0.015625)"/>
        <path id="DejaVuSans-72" d="M 2631 2963 
Q 2534 3019 2420 3045 
Q 2306 3072 2169 3072 
Q 1681 3072 1420 2755 
Q 1159 2438 1159 1844 
L 1159 0 
L 581 0 
L 581 3500 
L 1159 3500 
L 1159 2956 
Q 1341 3275 1631 3429 
Q 1922 3584 2338 3584 
Q 2397 3584 2469 3576 
Q 2541 3569 2628 3553 
L 2631 2963 
z
" transform="scale(0.015625)"/>
       </defs>
       <use xlink:href="#DejaVuSans-4d"/>
       <use xlink:href="#DejaVuSans-61" x="86.279297"/>
       <use xlink:href="#DejaVuSans-72" x="147.558594"/>
      </g>
     </g>
    </g>
    <g id="xtick_4">
     <g id="line2d_7">
      <g>
       <use xlink:href="#m41df6d4909" x="185.335625" y="336.24" style="stroke: #000000"/>
      </g>
     </g>
     <g id="line2d_8">
      <g>
       <use xlink:href="#mb643a2cbd2" x="185.335625" y="3.6" style="stroke: #000000"/>
      </g>
     </g>
     <g id="text_4">
      <!-- Apr -->
      <g transform="translate(177.550625 346.578594) scale(0.09 -0.09)">
       <defs>
        <path id="DejaVuSans-41" d="M 2188 4044 
L 1331 1722 
L 3047 1722 
L 2188 4044 
z
M 1831 4666 
L 2547 4666 
L 4325 0 
L 3669 0 
L 3244 1197 
L 1141 1197 
L 716 0 
L 50 0 
L 1831 4666 
z
" transform="scale(0.015625)"/>
        <path id="DejaVuSans-70" d="M 1159 525 
L 1159 -1331 
L 581 -1331 
L 581 3500 
L 1159 3500 
L 1159 2969 
Q 1341 3281 1617 3432 
Q 1894 3584 2278 3584 
Q 2916 3584 3314 3078 
Q 3713 2572 3713 1747 
Q 3713 922 3314 415 
Q 2916 -91 2278 -91 
Q 1894 -91 1617 61 
Q 1341 213 1159 525 
z
M 3116 1747 
Q 3116 2381 2855 2742 
Q 2594 3103 2138 3103 
Q 1681 3103 1420 2742 
Q 1159 2381 1159 1747 
Q 1159 1113 1420 752 
Q 1681 391 2138 391 
Q 2594 391 2855 752 
Q 3116 1113 3116 1747 
z
" transform="scale(0.015625)"/>
       </defs>
       <use xlink:href="#DejaVuSans-41"/>
       <use xlink:href="#DejaVuSans-70" x="68.408203"/>
       <use xlink:href="#DejaVuSans-72" x="131.884766"/>
      </g>
     </g>
    </g>
    <g id="xtick_5">
     <g id="line2d_9">
      <g>
       <use xlink:href="#m41df6d4909" x="222.535625" y="336.24" style="stroke: #000000"/>
      </g>
     </g>
     <g id="line2d_10">
      <g>
       <use xlink:href="#mb643a2cbd2" x="222.535625" y="3.6" style="stroke: #000000"/>
      </g>
     </g>
     <g id="text_5">
      <!-- May -->
      <g transform="translate(213.231875 346.578594) scale(0.09 -0.09)">
       <defs>
        <path id="DejaVuSans-79" d="M 2059 -325 
Q 1816 -950 1584 -1140 
Q 1353 -1331 966 -1331 
L 506 -1331 
L 506 -850 
L 844 -850 
Q 1081 -850 1212 -737 
Q 1344 -625 1503 -206 
L 1606 56 
L 191 3500 
L 800 3500 
L 1894 763 
L 2988 3500 
L 3597 3500 
L 2059 -325 
z
" transform="scale(0.015625)"/>
       </defs>
       <use xlink:href="#DejaVuSans-4d"/>
       <use xlink:href="#DejaVuSans-61" x="86.279297"/>
       <use xlink:href="#DejaVuSans-79" x="147.558594"/>
      </g>
     </g>
    </g>
    <g id="xtick_6">
     <g id="line2d_11">
      <g>
       <use xlink:href="#m41df6d4909" x="259.735625" y="336.24" style="stroke: #000000"/>
      </g>
     </g>
     <g id="line2d_12">
      <g>
       <use xlink:href="#mb643a2cbd2" x="259.735625" y="3.6" style="stroke: #000000"/>
      </g>
     </g>
     <g id="text_6">
      <!-- Jun -->
      <g transform="translate(252.704375 346.578594) scale(0.09 -0.09)">
       <defs>
        <path id="DejaVuSans-75" d="M 544 1381 
L 544 3500 
L 1119 3500 
L 1119 1403 
Q 1119 906 1312 657 
Q 1506 409 1894 409 
Q 2359 409 2629 706 
Q 2900 1003 2900 1516 
L 2900 3500 
L 3475 3500 
L 3475 0 
L 2900 0 
L 2900 538 
Q 2691 219 2414 64 
Q 2138 -91 1772 -91 
Q 1169 -91 856 284 
Q 544 659 544 1381 
z
M 1991 3584 
L 1991 3584 
z
" transform="scale(0.015625)"/>
       </defs>
       <use xlink:href="#DejaVuSans-4a"/>
       <use xlink:href="#DejaVuSans-75" x="29.492188"/>
       <use xlink:href="#DejaVuSans-6e" x="92.871094"/>
      </g>
     </g>
    </g>
    <g id="xtick_7">
     <g id="line2d_13">
      <g>
       <use xlink:href="#m41df6d4909" x="296.935625" y="336.24" style="stroke: #000000"/>
      </g>
     </g>
     <g id="line2d_14">
      <g>
       <use xlink:href="#mb643a2cbd2" x="296.935625" y="3.6" style="stroke: #000000"/>
      </g>
     </g>
     <g id="text_7">
      <!-- Jul -->
      <g transform="translate(291.506094 346.578594) scale(0.09 -0.09)">
       <defs>
        <path id="DejaVuSans-6c" d="M 603 4863 
L 1178 4863 
L 1178 0 
L 603 0 
L 603 4863 
z
" transform="scale(0.015625)"/>
       </defs>
       <use xlink:href="#DejaVuSans-4a"/>
       <use xlink:href="#DejaVuSans-75" x="29.492188"/>
       <use xlink:href="#DejaVuSans-6c" x="92.871094"/>
      </g>
     </g>
    </g>
    <g id="xtick_8">
     <g id="line2d_15">
      <g>
       <use xlink:href="#m41df6d4909" x="334.135625" y="336.24" style="stroke: #000000"/>
      </g>
     </g>
     <g id="line2d_16">
      <g>
       <use xlink:href="#mb643a2cbd2" x="334.135625" y="3.6" style="stroke: #000000"/>
      </g>
     </g>
     <g id="text_8">
      <!-- Aug -->
      <g transform="translate(325.348672 346.578594) scale(0.09 -0.09)">
       <defs>
        <path id="DejaVuSans-67" d="M 2906 1791 
Q 2906 2416 2648 2759 
Q 2391 3103 1925 3103 
Q 1463 3103 1205 2759 
Q 947 2416 947 1791 
Q 947 1169 1205 825 
Q 1463 481 1925 481 
Q 2391 481 2648 825 
Q 2906 1169 2906 1791 
z
M 3481 434 
Q 3481 -459 3084 -895 
Q 2688 -1331 1869 -1331 
Q 1566 -1331 1297 -1286 
Q 1028 -1241 775 -1147 
L 775 -588 
Q 1028 -725 1275 -790 
Q 1522 -856 1778 -856 
Q 2344 -856 2625 -561 
Q 2906 -266 2906 331 
L 2906 616 
Q 2728 306 2450 153 
Q 2172 0 1784 0 
Q 1141 0 747 490 
Q 353 981 353 1791 
Q 353 2603 747 3093 
Q 1141 3584 1784 3584 
Q 2172 3584 2450 3431 
Q 2728 3278 2906 2969 
L 2906 3500 
L 3481 3500 
L 3481 434 
z
" transform="scale(0.015625)"/>
       </defs>
       <use xlink:href="#DejaVuSans-41"/>
       <use xlink:href="#DejaVuSans-75" x="68.408203"/>
       <use xlink:href="#DejaVuSans-67" x="131.787109"/>
      </g>
     </g>
    </g>
    <g id="xtick_9">
     <g id="line2d_17">
      <g>
       <use xlink:href="#m41df6d4909" x="371.335625" y="336.24" style="stroke: #000000"/>
      </g>
     </g>
     <g id="line2d_18">
      <g>
       <use xlink:href="#mb643a2cbd2" x="371.335625" y="3.6" style="stroke: #000000"/>
      </g>
     </g>
     <g id="text_9">
      <!-- Sep -->
      <g transform="translate(362.853125 346.578594) scale(0.09 -0.09)">
       <defs>
        <path id="DejaVuSans-53" d="M 3425 4513 
L 3425 3897 
Q 3066 4069 2747 4153 
Q 2428 4238 2131 4238 
Q 1616 4238 1336 4038 
Q 1056 3838 1056 3469 
Q 1056 3159 1242 3001 
Q 1428 2844 1947 2747 
L 2328 2669 
Q 3034 2534 3370 2195 
Q 3706 1856 3706 1288 
Q 3706 609 3251 259 
Q 2797 -91 1919 -91 
Q 1588 -91 1214 -16 
Q 841 59 441 206 
L 441 856 
Q 825 641 1194 531 
Q 1563 422 1919 422 
Q 2459 422 2753 634 
Q 3047 847 3047 1241 
Q 3047 1584 2836 1778 
Q 2625 1972 2144 2069 
L 1759 2144 
Q 1053 2284 737 2584 
Q 422 2884 422 3419 
Q 422 4038 858 4394 
Q 1294 4750 2059 4750 
Q 2388 4750 2728 4690 
Q 3069 4631 3425 4513 
z
" transform="scale(0.015625)"/>
       </defs>
       <use xlink:href="#DejaVuSans-53"/>
       <use xlink:href="#DejaVuSans-65" x="63.476562"/>
       <use xlink:href="#DejaVuSans-70" x="125"/>
      </g>
     </g>
    </g>
    <g id="xtick_10">
     <g id="line2d_19">
      <g>
       <use xlink:href="#m41df6d4909" x="408.535625" y="336.24" style="stroke: #000000"/>
      </g>
     </g>
     <g id="line2d_20">
      <g>
       <use xlink:href="#mb643a2cbd2" x="408.535625" y="3.6" style="stroke: #000000"/>
      </g>
     </g>
     <g id="text_10">
      <!-- Oct -->
      <g transform="translate(400.754844 346.578594) scale(0.09 -0.09)">
       <defs>
        <path id="DejaVuSans-4f" d="M 2522 4238 
Q 1834 4238 1429 3725 
Q 1025 3213 1025 2328 
Q 1025 1447 1429 934 
Q 1834 422 2522 422 
Q 3209 422 3611 934 
Q 4013 1447 4013 2328 
Q 4013 3213 3611 3725 
Q 3209 4238 2522 4238 
z
M 2522 4750 
Q 3503 4750 4090 4092 
Q 4678 3434 4678 2328 
Q 4678 1225 4090 567 
Q 3503 -91 2522 -91 
Q 1538 -91 948 565 
Q 359 1222 359 2328 
Q 359 3434 948 4092 
Q 1538 4750 2522 4750 
z
" transform="scale(0.015625)"/>
        <path id="DejaVuSans-63" d="M 3122 3366 
L 3122 2828 
Q 2878 2963 2633 3030 
Q 2388 3097 2138 3097 
Q 1578 3097 1268 2742 
Q 959 2388 959 1747 
Q 959 1106 1268 751 
Q 1578 397 2138 397 
Q 2388 397 2633 464 
Q 2878 531 3122 666 
L 3122 134 
Q 2881 22 2623 -34 
Q 2366 -91 2075 -91 
Q 1284 -91 818 406 
Q 353 903 353 1747 
Q 353 2603 823 3093 
Q 1294 3584 2113 3584 
Q 2378 3584 2631 3529 
Q 2884 3475 3122 3366 
z
" transform="scale(0.015625)"/>
        <path id="DejaVuSans-74" d="M 1172 4494 
L 1172 3500 
L 2356 3500 
L 2356 3053 
L 1172 3053 
L 1172 1153 
Q 1172 725 1289 603 
Q 1406 481 1766 481 
L 2356 481 
L 2356 0 
L 1766 0 
Q 1100 0 847 248 
Q 594 497 594 1153 
L 594 3053 
L 172 3053 
L 172 3500 
L 594 3500 
L 594 4494 
L 1172 4494 
z
" transform="scale(0.015625)"/>
       </defs>
       <use xlink:href="#DejaVuSans-4f"/>
       <use xlink:href="#DejaVuSans-63" x="78.710938"/>
       <use xlink:href="#DejaVuSans-74" x="133.691406"/>
      </g>
     </g>
    </g>
    <g id="xtick_11">
     <g id="line2d_21">
      <g>
       <use xlink:href="#m41df6d4909" x="445.735625" y="336.24" style="stroke: #000000"/>
      </g>
     </g>
     <g id="line2d_22">
      <g>
       <use xlink:href="#mb643a2cbd2" x="445.735625" y="3.6" style="stroke: #000000"/>
      </g>
     </g>
     <g id="text_11">
      <!-- Nov -->
      <g transform="translate(436.952187 346.578594) scale(0.09 -0.09)">
       <defs>
        <path id="DejaVuSans-4e" d="M 628 4666 
L 1478 4666 
L 3547 763 
L 3547 4666 
L 4159 4666 
L 4159 0 
L 3309 0 
L 1241 3903 
L 1241 0 
L 628 0 
L 628 4666 
z
" transform="scale(0.015625)"/>
        <path id="DejaVuSans-6f" d="M 1959 3097 
Q 1497 3097 1228 2736 
Q 959 2375 959 1747 
Q 959 1119 1226 758 
Q 1494 397 1959 397 
Q 2419 397 2687 759 
Q 2956 1122 2956 1747 
Q 2956 2369 2687 2733 
Q 2419 3097 1959 3097 
z
M 1959 3584 
Q 2709 3584 3137 3096 
Q 3566 2609 3566 1747 
Q 3566 888 3137 398 
Q 2709 -91 1959 -91 
Q 1206 -91 779 398 
Q 353 888 353 1747 
Q 353 2609 779 3096 
Q 1206 3584 1959 3584 
z
" transform="scale(0.015625)"/>
        <path id="DejaVuSans-76" d="M 191 3500 
L 800 3500 
L 1894 563 
L 2988 3500 
L 3597 3500 
L 2284 0 
L 1503 0 
L 191 3500 
z
" transform="scale(0.015625)"/>
       </defs>
       <use xlink:href="#DejaVuSans-4e"/>
       <use xlink:href="#DejaVuSans-6f" x="74.804688"/>
       <use xlink:href="#DejaVuSans-76" x="135.986328"/>
      </g>
     </g>
    </g>
    <g id="xtick_12">
     <g id="line2d_23">
      <g>
       <use xlink:href="#m41df6d4909" x="482.935625" y="336.24" style="stroke: #000000"/>
      </g>
     </g>
     <g id="line2d_24">
      <g>
       <use xlink:href="#mb643a2cbd2" x="482.935625" y="3.6" style="stroke: #000000"/>
      </g>
     </g>
     <g id="text_12">
      <!-- Dec -->
      <g transform="translate(474.227422 346.578594) scale(0.09 -0.09)">
       <defs>
        <path id="DejaVuSans-44" d="M 1259 4147 
L 1259 519 
L 2022 519 
Q 2988 519 3436 956 
Q 3884 1394 3884 2338 
Q 3884 3275 3436 3711 
Q 2988 4147 2022 4147 
L 1259 4147 
z
M 628 4666 
L 1925 4666 
Q 3281 4666 3915 4102 
Q 4550 3538 4550 2338 
Q 4550 1131 3912 565 
Q 3275 0 1925 0 
L 628 0 
L 628 4666 
z
" transform="scale(0.015625)"/>
       </defs>
       <use xlink:href="#DejaVuSans-44"/>
       <use xlink:href="#DejaVuSans-65" x="77.001953"/>
       <use xlink:href="#DejaVuSans-63" x="138.525391"/>
      </g>
     </g>
    </g>
    <g id="text_13">
     <!-- Month -->
     <g transform="translate(262.664531 360.04875) scale(0.1 -0.1)">
      <defs>
       <path id="DejaVuSans-68" d="M 3513 2113 
L 3513 0 
L 2938 0 
L 2938 2094 
Q 2938 2591 2744 2837 
Q 2550 3084 2163 3084 
Q 1697 3084 1428 2787 
Q 1159 2491 1159 1978 
L 1159 0 
L 581 0 
L 581 4863 
L 1159 4863 
L 1159 2956 
Q 1366 3272 1645 3428 
Q 1925 3584 2291 3584 
Q 2894 3584 3203 3211 
Q 3513 2838 3513 2113 
z
" transform="scale(0.015625)"/>
      </defs>
      <use xlink:href="#DejaVuSans-4d"/>
      <use xlink:href="#DejaVuSans-6f" x="86.279297"/>
      <use xlink:href="#DejaVuSans-6e" x="147.460938"/>
      <use xlink:href="#DejaVuSans-74" x="210.839844"/>
      <use xlink:href="#DejaVuSans-68" x="250.048828"/>
     </g>
    </g>
   </g>
   <g id="matplotlib.axis_2">
    <g id="ytick_1">
     <g id="line2d_25">
      <defs>
       <path id="md9b1d5803a" d="M 0 0 
L 6 0 
" style="stroke: #000000"/>
      </defs>
      <g>
       <use xlink:href="#md9b1d5803a" x="55.135625" y="280.608988" style="stroke: #000000"/>
      </g>
     </g>
     <g id="line2d_26">
      <defs>
       <path id="md078d20fd2" d="M 0 0 
L -6 0 
" style="stroke: #000000"/>
      </defs>
      <g>
       <use xlink:href="#md078d20fd2" x="501.535625" y="280.608988" style="stroke: #000000"/>
      </g>
     </g>
     <g id="text_14">
      <!-- 350000 -->
      <g transform="translate(17.278125 284.028284) scale(0.09 -0.09)">
       <defs>
        <path id="DejaVuSans-33" d="M 2597 2516 
Q 3050 2419 3304 2112 
Q 3559 1806 3559 1356 
Q 3559 666 3084 287 
Q 2609 -91 1734 -91 
Q 1441 -91 1130 -33 
Q 819 25 488 141 
L 488 750 
Q 750 597 1062 519 
Q 1375 441 1716 441 
Q 2309 441 2620 675 
Q 2931 909 2931 1356 
Q 2931 1769 2642 2001 
Q 2353 2234 1838 2234 
L 1294 2234 
L 1294 2753 
L 1863 2753 
Q 2328 2753 2575 2939 
Q 2822 3125 2822 3475 
Q 2822 3834 2567 4026 
Q 2313 4219 1838 4219 
Q 1578 4219 1281 4162 
Q 984 4106 628 3988 
L 628 4550 
Q 988 4650 1302 4700 
Q 1616 4750 1894 4750 
Q 2613 4750 3031 4423 
Q 3450 4097 3450 3541 
Q 3450 3153 3228 2886 
Q 3006 2619 2597 2516 
z
" transform="scale(0.015625)"/>
        <path id="DejaVuSans-35" d="M 691 4666 
L 3169 4666 
L 3169 4134 
L 1269 4134 
L 1269 2991 
Q 1406 3038 1543 3061 
Q 1681 3084 1819 3084 
Q 2600 3084 3056 2656 
Q 3513 2228 3513 1497 
Q 3513 744 3044 326 
Q 2575 -91 1722 -91 
Q 1428 -91 1123 -41 
Q 819 9 494 109 
L 494 744 
Q 775 591 1075 516 
Q 1375 441 1709 441 
Q 2250 441 2565 725 
Q 2881 1009 2881 1497 
Q 2881 1984 2565 2268 
Q 2250 2553 1709 2553 
Q 1456 2553 1204 2497 
Q 953 2441 691 2322 
L 691 4666 
z
" transform="scale(0.015625)"/>
        <path id="DejaVuSans-30" d="M 2034 4250 
Q 1547 4250 1301 3770 
Q 1056 3291 1056 2328 
Q 1056 1369 1301 889 
Q 1547 409 2034 409 
Q 2525 409 2770 889 
Q 3016 1369 3016 2328 
Q 3016 3291 2770 3770 
Q 2525 4250 2034 4250 
z
M 2034 4750 
Q 2819 4750 3233 4129 
Q 3647 3509 3647 2328 
Q 3647 1150 3233 529 
Q 2819 -91 2034 -91 
Q 1250 -91 836 529 
Q 422 1150 422 2328 
Q 422 3509 836 4129 
Q 1250 4750 2034 4750 
z
" transform="scale(0.015625)"/>
       </defs>
       <use xlink:href="#DejaVuSans-33"/>
       <use xlink:href="#DejaVuSans-35" x="63.623047"/>
       <use xlink:href="#DejaVuSans-30" x="127.246094"/>
       <use xlink:href="#DejaVuSans-30" x="190.869141"/>
       <use xlink:href="#DejaVuSans-30" x="254.492188"/>
       <use xlink:href="#DejaVuSans-30" x="318.115234"/>
      </g>
     </g>
    </g>
    <g id="ytick_2">
     <g id="line2d_27">
      <g>
       <use xlink:href="#md9b1d5803a" x="55.135625" y="216.966463" style="stroke: #000000"/>
      </g>
     </g>
     <g id="line2d_28">
      <g>
       <use xlink:href="#md078d20fd2" x="501.535625" y="216.966463" style="stroke: #000000"/>
      </g>
     </g>
     <g id="text_15">
      <!-- 400000 -->
      <g transform="translate(17.278125 220.38576) scale(0.09 -0.09)">
       <defs>
        <path id="DejaVuSans-34" d="M 2419 4116 
L 825 1625 
L 2419 1625 
L 2419 4116 
z
M 2253 4666 
L 3047 4666 
L 3047 1625 
L 3713 1625 
L 3713 1100 
L 3047 1100 
L 3047 0 
L 2419 0 
L 2419 1100 
L 313 1100 
L 313 1709 
L 2253 4666 
z
" transform="scale(0.015625)"/>
       </defs>
       <use xlink:href="#DejaVuSans-34"/>
       <use xlink:href="#DejaVuSans-30" x="63.623047"/>
       <use xlink:href="#DejaVuSans-30" x="127.246094"/>
       <use xlink:href="#DejaVuSans-30" x="190.869141"/>
       <use xlink:href="#DejaVuSans-30" x="254.492188"/>
       <use xlink:href="#DejaVuSans-30" x="318.115234"/>
      </g>
     </g>
    </g>
    <g id="ytick_3">
     <g id="line2d_29">
      <g>
       <use xlink:href="#md9b1d5803a" x="55.135625" y="153.323939" style="stroke: #000000"/>
      </g>
     </g>
     <g id="line2d_30">
      <g>
       <use xlink:href="#md078d20fd2" x="501.535625" y="153.323939" style="stroke: #000000"/>
      </g>
     </g>
     <g id="text_16">
      <!-- 450000 -->
      <g transform="translate(17.278125 156.743236) scale(0.09 -0.09)">
       <use xlink:href="#DejaVuSans-34"/>
       <use xlink:href="#DejaVuSans-35" x="63.623047"/>
       <use xlink:href="#DejaVuSans-30" x="127.246094"/>
       <use xlink:href="#DejaVuSans-30" x="190.869141"/>
       <use xlink:href="#DejaVuSans-30" x="254.492188"/>
       <use xlink:href="#DejaVuSans-30" x="318.115234"/>
      </g>
     </g>
    </g>
    <g id="ytick_4">
     <g id="line2d_31">
      <g>
       <use xlink:href="#md9b1d5803a" x="55.135625" y="89.681415" style="stroke: #000000"/>
      </g>
     </g>
     <g id="line2d_32">
      <g>
       <use xlink:href="#md078d20fd2" x="501.535625" y="89.681415" style="stroke: #000000"/>
      </g>
     </g>
     <g id="text_17">
      <!-- 500000 -->
      <g transform="translate(17.278125 93.100711) scale(0.09 -0.09)">
       <use xlink:href="#DejaVuSans-35"/>
       <use xlink:href="#DejaVuSans-30" x="63.623047"/>
       <use xlink:href="#DejaVuSans-30" x="127.246094"/>
       <use xlink:href="#DejaVuSans-30" x="190.869141"/>
       <use xlink:href="#DejaVuSans-30" x="254.492188"/>
       <use xlink:href="#DejaVuSans-30" x="318.115234"/>
      </g>
     </g>
    </g>
    <g id="ytick_5">
     <g id="line2d_33">
      <g>
       <use xlink:href="#md9b1d5803a" x="55.135625" y="26.03889" style="stroke: #000000"/>
      </g>
     </g>
     <g id="line2d_34">
      <g>
       <use xlink:href="#md078d20fd2" x="501.535625" y="26.03889" style="stroke: #000000"/>
      </g>
     </g>
     <g id="text_18">
      <!-- 550000 -->
      <g transform="translate(17.278125 29.458187) scale(0.09 -0.09)">
       <use xlink:href="#DejaVuSans-35"/>
       <use xlink:href="#DejaVuSans-35" x="63.623047"/>
       <use xlink:href="#DejaVuSans-30" x="127.246094"/>
       <use xlink:href="#DejaVuSans-30" x="190.869141"/>
       <use xlink:href="#DejaVuSans-30" x="254.492188"/>
       <use xlink:href="#DejaVuSans-30" x="318.115234"/>
      </g>
     </g>
    </g>
    <g id="ytick_6">
     <g id="line2d_35">
      <defs>
       <path id="m77fccaea40" d="M 0 0 
L 3 0 
" style="stroke: #000000"/>
      </defs>
      <g>
       <use xlink:href="#m77fccaea40" x="55.135625" y="331.523007" style="stroke: #000000"/>
      </g>
     </g>
     <g id="line2d_36">
      <defs>
       <path id="m4089270af3" d="M 0 0 
L -3 0 
" style="stroke: #000000"/>
      </defs>
      <g>
       <use xlink:href="#m4089270af3" x="501.535625" y="331.523007" style="stroke: #000000"/>
      </g>
     </g>
    </g>
    <g id="ytick_7">
     <g id="line2d_37">
      <g>
       <use xlink:href="#m77fccaea40" x="55.135625" y="318.794502" style="stroke: #000000"/>
      </g>
     </g>
     <g id="line2d_38">
      <g>
       <use xlink:href="#m4089270af3" x="501.535625" y="318.794502" style="stroke: #000000"/>
      </g>
     </g>
    </g>
    <g id="ytick_8">
     <g id="line2d_39">
      <g>
       <use xlink:href="#m77fccaea40" x="55.135625" y="306.065997" style="stroke: #000000"/>
      </g>
     </g>
     <g id="line2d_40">
      <g>
       <use xlink:href="#m4089270af3" x="501.535625" y="306.065997" style="stroke: #000000"/>
      </g>
     </g>
    </g>
    <g id="ytick_9">
     <g id="line2d_41">
      <g>
       <use xlink:href="#m77fccaea40" x="55.135625" y="293.337492" style="stroke: #000000"/>
      </g>
     </g>
     <g id="line2d_42">
      <g>
       <use xlink:href="#m4089270af3" x="501.535625" y="293.337492" style="stroke: #000000"/>
      </g>
     </g>
    </g>
    <g id="ytick_10">
     <g id="line2d_43">
      <g>
       <use xlink:href="#m77fccaea40" x="55.135625" y="267.880483" style="stroke: #000000"/>
      </g>
     </g>
     <g id="line2d_44">
      <g>
       <use xlink:href="#m4089270af3" x="501.535625" y="267.880483" style="stroke: #000000"/>
      </g>
     </g>
    </g>
    <g id="ytick_11">
     <g id="line2d_45">
      <g>
       <use xlink:href="#m77fccaea40" x="55.135625" y="255.151978" style="stroke: #000000"/>
      </g>
     </g>
     <g id="line2d_46">
      <g>
       <use xlink:href="#m4089270af3" x="501.535625" y="255.151978" style="stroke: #000000"/>
      </g>
     </g>
    </g>
    <g id="ytick_12">
     <g id="line2d_47">
      <g>
       <use xlink:href="#m77fccaea40" x="55.135625" y="242.423473" style="stroke: #000000"/>
      </g>
     </g>
     <g id="line2d_48">
      <g>
       <use xlink:href="#m4089270af3" x="501.535625" y="242.423473" style="stroke: #000000"/>
      </g>
     </g>
    </g>
    <g id="ytick_13">
     <g id="line2d_49">
      <g>
       <use xlink:href="#m77fccaea40" x="55.135625" y="229.694968" style="stroke: #000000"/>
      </g>
     </g>
     <g id="line2d_50">
      <g>
       <use xlink:href="#m4089270af3" x="501.535625" y="229.694968" style="stroke: #000000"/>
      </g>
     </g>
    </g>
    <g id="ytick_14">
     <g id="line2d_51">
      <g>
       <use xlink:href="#m77fccaea40" x="55.135625" y="204.237958" style="stroke: #000000"/>
      </g>
     </g>
     <g id="line2d_52">
      <g>
       <use xlink:href="#m4089270af3" x="501.535625" y="204.237958" style="stroke: #000000"/>
      </g>
     </g>
    </g>
    <g id="ytick_15">
     <g id="line2d_53">
      <g>
       <use xlink:href="#m77fccaea40" x="55.135625" y="191.509454" style="stroke: #000000"/>
      </g>
     </g>
     <g id="line2d_54">
      <g>
       <use xlink:href="#m4089270af3" x="501.535625" y="191.509454" style="stroke: #000000"/>
      </g>
     </g>
    </g>
    <g id="ytick_16">
     <g id="line2d_55">
      <g>
       <use xlink:href="#m77fccaea40" x="55.135625" y="178.780949" style="stroke: #000000"/>
      </g>
     </g>
     <g id="line2d_56">
      <g>
       <use xlink:href="#m4089270af3" x="501.535625" y="178.780949" style="stroke: #000000"/>
      </g>
     </g>
    </g>
    <g id="ytick_17">
     <g id="line2d_57">
      <g>
       <use xlink:href="#m77fccaea40" x="55.135625" y="166.052444" style="stroke: #000000"/>
      </g>
     </g>
     <g id="line2d_58">
      <g>
       <use xlink:href="#m4089270af3" x="501.535625" y="166.052444" style="stroke: #000000"/>
      </g>
     </g>
    </g>
    <g id="ytick_18">
     <g id="line2d_59">
      <g>
       <use xlink:href="#m77fccaea40" x="55.135625" y="140.595434" style="stroke: #000000"/>
      </g>
     </g>
     <g id="line2d_60">
      <g>
       <use xlink:href="#m4089270af3" x="501.535625" y="140.595434" style="stroke: #000000"/>
      </g>
     </g>
    </g>
    <g id="ytick_19">
     <g id="line2d_61">
      <g>
       <use xlink:href="#m77fccaea40" x="55.135625" y="127.866929" style="stroke: #000000"/>
      </g>
     </g>
     <g id="line2d_62">
      <g>
       <use xlink:href="#m4089270af3" x="501.535625" y="127.866929" style="stroke: #000000"/>
      </g>
     </g>
    </g>
    <g id="ytick_20">
     <g id="line2d_63">
      <g>
       <use xlink:href="#m77fccaea40" x="55.135625" y="115.138424" style="stroke: #000000"/>
      </g>
     </g>
     <g id="line2d_64">
      <g>
       <use xlink:href="#m4089270af3" x="501.535625" y="115.138424" style="stroke: #000000"/>
      </g>
     </g>
    </g>
    <g id="ytick_21">
     <g id="line2d_65">
      <g>
       <use xlink:href="#m77fccaea40" x="55.135625" y="102.409919" style="stroke: #000000"/>
      </g>
     </g>
     <g id="line2d_66">
      <g>
       <use xlink:href="#m4089270af3" x="501.535625" y="102.409919" style="stroke: #000000"/>
      </g>
     </g>
    </g>
    <g id="ytick_22">
     <g id="line2d_67">
      <g>
       <use xlink:href="#m77fccaea40" x="55.135625" y="76.95291" style="stroke: #000000"/>
      </g>
     </g>
     <g id="line2d_68">
      <g>
       <use xlink:href="#m4089270af3" x="501.535625" y="76.95291" style="stroke: #000000"/>
      </g>
     </g>
    </g>
    <g id="ytick_23">
     <g id="line2d_69">
      <g>
       <use xlink:href="#m77fccaea40" x="55.135625" y="64.224405" style="stroke: #000000"/>
      </g>
     </g>
     <g id="line2d_70">
      <g>
       <use xlink:href="#m4089270af3" x="501.535625" y="64.224405" style="stroke: #000000"/>
      </g>
     </g>
    </g>
    <g id="ytick_24">
     <g id="line2d_71">
      <g>
       <use xlink:href="#m77fccaea40" x="55.135625" y="51.4959" style="stroke: #000000"/>
      </g>
     </g>
     <g id="line2d_72">
      <g>
       <use xlink:href="#m4089270af3" x="501.535625" y="51.4959" style="stroke: #000000"/>
      </g>
     </g>
    </g>
    <g id="ytick_25">
     <g id="line2d_73">
      <g>
       <use xlink:href="#m77fccaea40" x="55.135625" y="38.767395" style="stroke: #000000"/>
      </g>
     </g>
     <g id="line2d_74">
      <g>
       <use xlink:href="#m4089270af3" x="501.535625" y="38.767395" style="stroke: #000000"/>
      </g>
     </g>
    </g>
    <g id="ytick_26">
     <g id="line2d_75">
      <g>
       <use xlink:href="#m77fccaea40" x="55.135625" y="13.310385" style="stroke: #000000"/>
      </g>
     </g>
     <g id="line2d_76">
      <g>
       <use xlink:href="#m4089270af3" x="501.535625" y="13.310385" style="stroke: #000000"/>
      </g>
     </g>
    </g>
    <g id="text_19">
     <!-- Total Offences -->
     <g transform="translate(11.198438 205.317656) rotate(-90) scale(0.1 -0.1)">
      <defs>
       <path id="DejaVuSans-54" d="M -19 4666 
L 3928 4666 
L 3928 4134 
L 2272 4134 
L 2272 0 
L 1638 0 
L 1638 4134 
L -19 4134 
L -19 4666 
z
" transform="scale(0.015625)"/>
       <path id="DejaVuSans-20" transform="scale(0.015625)"/>
       <path id="DejaVuSans-66" d="M 2375 4863 
L 2375 4384 
L 1825 4384 
Q 1516 4384 1395 4259 
Q 1275 4134 1275 3809 
L 1275 3500 
L 2222 3500 
L 2222 3053 
L 1275 3053 
L 1275 0 
L 697 0 
L 697 3053 
L 147 3053 
L 147 3500 
L 697 3500 
L 697 3744 
Q 697 4328 969 4595 
Q 1241 4863 1831 4863 
L 2375 4863 
z
" transform="scale(0.015625)"/>
       <path id="DejaVuSans-73" d="M 2834 3397 
L 2834 2853 
Q 2591 2978 2328 3040 
Q 2066 3103 1784 3103 
Q 1356 3103 1142 2972 
Q 928 2841 928 2578 
Q 928 2378 1081 2264 
Q 1234 2150 1697 2047 
L 1894 2003 
Q 2506 1872 2764 1633 
Q 3022 1394 3022 966 
Q 3022 478 2636 193 
Q 2250 -91 1575 -91 
Q 1294 -91 989 -36 
Q 684 19 347 128 
L 347 722 
Q 666 556 975 473 
Q 1284 391 1588 391 
Q 1994 391 2212 530 
Q 2431 669 2431 922 
Q 2431 1156 2273 1281 
Q 2116 1406 1581 1522 
L 1381 1569 
Q 847 1681 609 1914 
Q 372 2147 372 2553 
Q 372 3047 722 3315 
Q 1072 3584 1716 3584 
Q 2034 3584 2315 3537 
Q 2597 3491 2834 3397 
z
" transform="scale(0.015625)"/>
      </defs>
      <use xlink:href="#DejaVuSans-54"/>
      <use xlink:href="#DejaVuSans-6f" x="44.083984"/>
      <use xlink:href="#DejaVuSans-74" x="105.265625"/>
      <use xlink:href="#DejaVuSans-61" x="144.474609"/>
      <use xlink:href="#DejaVuSans-6c" x="205.753906"/>
      <use xlink:href="#DejaVuSans-20" x="233.537109"/>
      <use xlink:href="#DejaVuSans-4f" x="265.324219"/>
      <use xlink:href="#DejaVuSans-66" x="344.035156"/>
      <use xlink:href="#DejaVuSans-66" x="379.240234"/>
      <use xlink:href="#DejaVuSans-65" x="414.445312"/>
      <use xlink:href="#DejaVuSans-6e" x="475.96875"/>
      <use xlink:href="#DejaVuSans-63" x="539.347656"/>
      <use xlink:href="#DejaVuSans-65" x="594.328125"/>
      <use xlink:href="#DejaVuSans-73" x="655.851562"/>
     </g>
    </g>
   </g>
   <g id="patch_3">
    <path d="M 58.855625 182.140956 
L 88.615625 182.140956 
L 88.615625 121.187328 
L 58.855625 121.187328 
L 58.855625 182.140956 
z
" clip-path="url(#p153a8e441f)" style="fill: #1f5c92; stroke: #353535; stroke-linejoin: miter"/>
   </g>
   <g id="line2d_77">
    <path d="M 73.735625 182.140956 
L 73.735625 189.807652 
" clip-path="url(#p153a8e441f)" style="fill: none; stroke: #353535"/>
   </g>
   <g id="line2d_78">
    <path d="M 73.735625 121.187328 
L 73.735625 65.928752 
" clip-path="url(#p153a8e441f)" style="fill: none; stroke: #353535"/>
   </g>
   <g id="line2d_79">
    <path d="M 66.295625 189.807652 
L 81.175625 189.807652 
" clip-path="url(#p153a8e441f)" style="fill: none; stroke: #353535; stroke-linecap: square"/>
   </g>
   <g id="line2d_80">
    <path d="M 66.295625 65.928752 
L 81.175625 65.928752 
" clip-path="url(#p153a8e441f)" style="fill: none; stroke: #353535; stroke-linecap: square"/>
   </g>
   <g id="line2d_81">
    <defs>
     <path id="mff8ced5bf2" d="M 0 3 
C 0.795609 3 1.55874 2.683901 2.12132 2.12132 
C 2.683901 1.55874 3 0.795609 3 0 
C 3 -0.795609 2.683901 -1.55874 2.12132 -2.12132 
C 1.55874 -2.683901 0.795609 -3 0 -3 
C -0.795609 -3 -1.55874 -2.683901 -2.12132 -2.12132 
C -2.683901 -1.55874 -3 -0.795609 -3 0 
C -3 0.795609 -2.683901 1.55874 -2.12132 2.12132 
C -1.55874 2.683901 -0.795609 3 0 3 
z
" style="stroke: #353535"/>
    </defs>
    <g clip-path="url(#p153a8e441f)">
     <use xlink:href="#mff8ced5bf2" x="73.735625" y="278.871547" style="fill-opacity: 0; stroke: #353535"/>
    </g>
   </g>
   <g id="patch_4">
    <path d="M 96.055625 224.745489 
L 125.815625 224.745489 
L 125.815625 166.368111 
L 96.055625 166.368111 
L 96.055625 224.745489 
z
" clip-path="url(#p153a8e441f)" style="fill: #1f5c92; stroke: #353535; stroke-linejoin: miter"/>
   </g>
   <g id="line2d_82">
    <path d="M 110.935625 224.745489 
L 110.935625 298.453079 
" clip-path="url(#p153a8e441f)" style="fill: none; stroke: #353535"/>
   </g>
   <g id="line2d_83">
    <path d="M 110.935625 166.368111 
L 110.935625 90.60805 
" clip-path="url(#p153a8e441f)" style="fill: none; stroke: #353535"/>
   </g>
   <g id="line2d_84">
    <path d="M 103.495625 298.453079 
L 118.375625 298.453079 
" clip-path="url(#p153a8e441f)" style="fill: none; stroke: #353535; stroke-linecap: square"/>
   </g>
   <g id="line2d_85">
    <path d="M 103.495625 90.60805 
L 118.375625 90.60805 
" clip-path="url(#p153a8e441f)" style="fill: none; stroke: #353535; stroke-linecap: square"/>
   </g>
   <g id="line2d_86"/>
   <g id="patch_5">
    <path d="M 133.255625 150.925252 
L 163.015625 150.925252 
L 163.015625 115.623699 
L 133.255625 115.623699 
L 133.255625 150.925252 
z
" clip-path="url(#p153a8e441f)" style="fill: #1f5c92; stroke: #353535; stroke-linejoin: miter"/>
   </g>
   <g id="line2d_87">
    <path d="M 148.135625 150.925252 
L 148.135625 152.724426 
" clip-path="url(#p153a8e441f)" style="fill: none; stroke: #353535"/>
   </g>
   <g id="line2d_88">
    <path d="M 148.135625 115.623699 
L 148.135625 83.449539 
" clip-path="url(#p153a8e441f)" style="fill: none; stroke: #353535"/>
   </g>
   <g id="line2d_89">
    <path d="M 140.695625 152.724426 
L 155.575625 152.724426 
" clip-path="url(#p153a8e441f)" style="fill: none; stroke: #353535; stroke-linecap: square"/>
   </g>
   <g id="line2d_90">
    <path d="M 140.695625 83.449539 
L 155.575625 83.449539 
" clip-path="url(#p153a8e441f)" style="fill: none; stroke: #353535; stroke-linecap: square"/>
   </g>
   <g id="line2d_91">
    <g clip-path="url(#p153a8e441f)">
     <use xlink:href="#mff8ced5bf2" x="148.135625" y="249.621442" style="fill-opacity: 0; stroke: #353535"/>
     <use xlink:href="#mff8ced5bf2" x="148.135625" y="218.586802" style="fill-opacity: 0; stroke: #353535"/>
    </g>
   </g>
   <g id="patch_6">
    <path d="M 170.455625 185.776535 
L 200.215625 185.776535 
L 200.215625 131.223118 
L 170.455625 131.223118 
L 170.455625 185.776535 
z
" clip-path="url(#p153a8e441f)" style="fill: #1f5c92; stroke: #353535; stroke-linejoin: miter"/>
   </g>
   <g id="line2d_92">
    <path d="M 185.335625 185.776535 
L 185.335625 252.61646 
" clip-path="url(#p153a8e441f)" style="fill: none; stroke: #353535"/>
   </g>
   <g id="line2d_93">
    <path d="M 185.335625 131.223118 
L 185.335625 111.070394 
" clip-path="url(#p153a8e441f)" style="fill: none; stroke: #353535"/>
   </g>
   <g id="line2d_94">
    <path d="M 177.895625 252.61646 
L 192.775625 252.61646 
" clip-path="url(#p153a8e441f)" style="fill: none; stroke: #353535; stroke-linecap: square"/>
   </g>
   <g id="line2d_95">
    <path d="M 177.895625 111.070394 
L 192.775625 111.070394 
" clip-path="url(#p153a8e441f)" style="fill: none; stroke: #353535; stroke-linecap: square"/>
   </g>
   <g id="line2d_96">
    <g clip-path="url(#p153a8e441f)">
     <use xlink:href="#mff8ced5bf2" x="185.335625" y="303.778685" style="fill-opacity: 0; stroke: #353535"/>
    </g>
   </g>
   <g id="patch_7">
    <path d="M 207.655625 174.176094 
L 237.415625 174.176094 
L 237.415625 89.184685 
L 207.655625 89.184685 
L 207.655625 174.176094 
z
" clip-path="url(#p153a8e441f)" style="fill: #1f5c92; stroke: #353535; stroke-linejoin: miter"/>
   </g>
   <g id="line2d_97">
    <path d="M 222.535625 174.176094 
L 222.535625 230.344122 
" clip-path="url(#p153a8e441f)" style="fill: none; stroke: #353535"/>
   </g>
   <g id="line2d_98">
    <path d="M 222.535625 89.184685 
L 222.535625 71.029064 
" clip-path="url(#p153a8e441f)" style="fill: none; stroke: #353535"/>
   </g>
   <g id="line2d_99">
    <path d="M 215.095625 230.344122 
L 229.975625 230.344122 
" clip-path="url(#p153a8e441f)" style="fill: none; stroke: #353535; stroke-linecap: square"/>
   </g>
   <g id="line2d_100">
    <path d="M 215.095625 71.029064 
L 229.975625 71.029064 
" clip-path="url(#p153a8e441f)" style="fill: none; stroke: #353535; stroke-linecap: square"/>
   </g>
   <g id="line2d_101"/>
   <g id="patch_8">
    <path d="M 244.855625 150.7566 
L 274.615625 150.7566 
L 274.615625 103.678315 
L 244.855625 103.678315 
L 244.855625 150.7566 
z
" clip-path="url(#p153a8e441f)" style="fill: #1f5c92; stroke: #353535; stroke-linejoin: miter"/>
   </g>
   <g id="line2d_102">
    <path d="M 259.735625 150.7566 
L 259.735625 185.201207 
" clip-path="url(#p153a8e441f)" style="fill: none; stroke: #353535"/>
   </g>
   <g id="line2d_103">
    <path d="M 259.735625 103.678315 
L 259.735625 64.197675 
" clip-path="url(#p153a8e441f)" style="fill: none; stroke: #353535"/>
   </g>
   <g id="line2d_104">
    <path d="M 252.295625 185.201207 
L 267.175625 185.201207 
" clip-path="url(#p153a8e441f)" style="fill: none; stroke: #353535; stroke-linecap: square"/>
   </g>
   <g id="line2d_105">
    <path d="M 252.295625 64.197675 
L 267.175625 64.197675 
" clip-path="url(#p153a8e441f)" style="fill: none; stroke: #353535; stroke-linecap: square"/>
   </g>
   <g id="line2d_106"/>
   <g id="patch_9">
    <path d="M 282.055625 145.519138 
L 311.815625 145.519138 
L 311.815625 101.75281 
L 282.055625 101.75281 
L 282.055625 145.519138 
z
" clip-path="url(#p153a8e441f)" style="fill: #1f5c92; stroke: #353535; stroke-linejoin: miter"/>
   </g>
   <g id="line2d_107">
    <path d="M 296.935625 145.519138 
L 296.935625 179.963427 
" clip-path="url(#p153a8e441f)" style="fill: none; stroke: #353535"/>
   </g>
   <g id="line2d_108">
    <path d="M 296.935625 101.75281 
L 296.935625 82.449078 
" clip-path="url(#p153a8e441f)" style="fill: none; stroke: #353535"/>
   </g>
   <g id="line2d_109">
    <path d="M 289.495625 179.963427 
L 304.375625 179.963427 
" clip-path="url(#p153a8e441f)" style="fill: none; stroke: #353535; stroke-linecap: square"/>
   </g>
   <g id="line2d_110">
    <path d="M 289.495625 82.449078 
L 304.375625 82.449078 
" clip-path="url(#p153a8e441f)" style="fill: none; stroke: #353535; stroke-linecap: square"/>
   </g>
   <g id="line2d_111">
    <g clip-path="url(#p153a8e441f)">
     <use xlink:href="#mff8ced5bf2" x="296.935625" y="23.237346" style="fill-opacity: 0; stroke: #353535"/>
    </g>
   </g>
   <g id="patch_10">
    <path d="M 319.255625 166.747102 
L 349.015625 166.747102 
L 349.015625 127.199001 
L 319.255625 127.199001 
L 319.255625 166.747102 
z
" clip-path="url(#p153a8e441f)" style="fill: #1f5c92; stroke: #353535; stroke-linejoin: miter"/>
   </g>
   <g id="line2d_112">
    <path d="M 334.135625 166.747102 
L 334.135625 203.478067 
" clip-path="url(#p153a8e441f)" style="fill: none; stroke: #353535"/>
   </g>
   <g id="line2d_113">
    <path d="M 334.135625 127.199001 
L 334.135625 120.500943 
" clip-path="url(#p153a8e441f)" style="fill: none; stroke: #353535"/>
   </g>
   <g id="line2d_114">
    <path d="M 326.695625 203.478067 
L 341.575625 203.478067 
" clip-path="url(#p153a8e441f)" style="fill: none; stroke: #353535; stroke-linecap: square"/>
   </g>
   <g id="line2d_115">
    <path d="M 326.695625 120.500943 
L 341.575625 120.500943 
" clip-path="url(#p153a8e441f)" style="fill: none; stroke: #353535; stroke-linecap: square"/>
   </g>
   <g id="line2d_116">
    <g clip-path="url(#p153a8e441f)">
     <use xlink:href="#mff8ced5bf2" x="334.135625" y="18.72" style="fill-opacity: 0; stroke: #353535"/>
    </g>
   </g>
   <g id="patch_11">
    <path d="M 356.455625 189.5499 
L 386.215625 189.5499 
L 386.215625 126.785961 
L 356.455625 126.785961 
L 356.455625 189.5499 
z
" clip-path="url(#p153a8e441f)" style="fill: #1f5c92; stroke: #353535; stroke-linejoin: miter"/>
   </g>
   <g id="line2d_117">
    <path d="M 371.335625 189.5499 
L 371.335625 197.297105 
" clip-path="url(#p153a8e441f)" style="fill: none; stroke: #353535"/>
   </g>
   <g id="line2d_118">
    <path d="M 371.335625 126.785961 
L 371.335625 39.668573 
" clip-path="url(#p153a8e441f)" style="fill: none; stroke: #353535"/>
   </g>
   <g id="line2d_119">
    <path d="M 363.895625 197.297105 
L 378.775625 197.297105 
" clip-path="url(#p153a8e441f)" style="fill: none; stroke: #353535; stroke-linecap: square"/>
   </g>
   <g id="line2d_120">
    <path d="M 363.895625 39.668573 
L 378.775625 39.668573 
" clip-path="url(#p153a8e441f)" style="fill: none; stroke: #353535; stroke-linecap: square"/>
   </g>
   <g id="line2d_121"/>
   <g id="patch_12">
    <path d="M 393.655625 183.301477 
L 423.415625 183.301477 
L 423.415625 132.529062 
L 393.655625 132.529062 
L 393.655625 183.301477 
z
" clip-path="url(#p153a8e441f)" style="fill: #1f5c92; stroke: #353535; stroke-linejoin: miter"/>
   </g>
   <g id="line2d_122">
    <path d="M 408.535625 183.301477 
L 408.535625 204.678365 
" clip-path="url(#p153a8e441f)" style="fill: none; stroke: #353535"/>
   </g>
   <g id="line2d_123">
    <path d="M 408.535625 132.529062 
L 408.535625 113.688648 
" clip-path="url(#p153a8e441f)" style="fill: none; stroke: #353535"/>
   </g>
   <g id="line2d_124">
    <path d="M 401.095625 204.678365 
L 415.975625 204.678365 
" clip-path="url(#p153a8e441f)" style="fill: none; stroke: #353535; stroke-linecap: square"/>
   </g>
   <g id="line2d_125">
    <path d="M 401.095625 113.688648 
L 415.975625 113.688648 
" clip-path="url(#p153a8e441f)" style="fill: none; stroke: #353535; stroke-linecap: square"/>
   </g>
   <g id="line2d_126">
    <g clip-path="url(#p153a8e441f)">
     <use xlink:href="#mff8ced5bf2" x="408.535625" y="32.782452" style="fill-opacity: 0; stroke: #353535"/>
    </g>
   </g>
   <g id="patch_13">
    <path d="M 430.855625 224.187026 
L 460.615625 224.187026 
L 460.615625 179.131301 
L 430.855625 179.131301 
L 430.855625 224.187026 
z
" clip-path="url(#p153a8e441f)" style="fill: #1f5c92; stroke: #353535; stroke-linejoin: miter"/>
   </g>
   <g id="line2d_127">
    <path d="M 445.735625 224.187026 
L 445.735625 249.369418 
" clip-path="url(#p153a8e441f)" style="fill: none; stroke: #353535"/>
   </g>
   <g id="line2d_128">
    <path d="M 445.735625 179.131301 
L 445.735625 149.89488 
" clip-path="url(#p153a8e441f)" style="fill: none; stroke: #353535"/>
   </g>
   <g id="line2d_129">
    <path d="M 438.295625 249.369418 
L 453.175625 249.369418 
" clip-path="url(#p153a8e441f)" style="fill: none; stroke: #353535; stroke-linecap: square"/>
   </g>
   <g id="line2d_130">
    <path d="M 438.295625 149.89488 
L 453.175625 149.89488 
" clip-path="url(#p153a8e441f)" style="fill: none; stroke: #353535; stroke-linecap: square"/>
   </g>
   <g id="line2d_131">
    <g clip-path="url(#p153a8e441f)">
     <use xlink:href="#mff8ced5bf2" x="445.735625" y="81.597541" style="fill-opacity: 0; stroke: #353535"/>
    </g>
   </g>
   <g id="patch_14">
    <path d="M 468.055625 276.94286 
L 497.815625 276.94286 
L 497.815625 218.90756 
L 468.055625 218.90756 
L 468.055625 276.94286 
z
" clip-path="url(#p153a8e441f)" style="fill: #1f5c92; stroke: #353535; stroke-linejoin: miter"/>
   </g>
   <g id="line2d_132">
    <path d="M 482.935625 276.94286 
L 482.935625 321.12 
" clip-path="url(#p153a8e441f)" style="fill: none; stroke: #353535"/>
   </g>
   <g id="line2d_133">
    <path d="M 482.935625 218.90756 
L 482.935625 133.169624 
" clip-path="url(#p153a8e441f)" style="fill: none; stroke: #353535"/>
   </g>
   <g id="line2d_134">
    <path d="M 475.495625 321.12 
L 490.375625 321.12 
" clip-path="url(#p153a8e441f)" style="fill: none; stroke: #353535; stroke-linecap: square"/>
   </g>
   <g id="line2d_135">
    <path d="M 475.495625 133.169624 
L 490.375625 133.169624 
" clip-path="url(#p153a8e441f)" style="fill: none; stroke: #353535; stroke-linecap: square"/>
   </g>
   <g id="line2d_136"/>
   <g id="line2d_137">
    <path d="M 58.855625 153.4805 
L 88.615625 153.4805 
" clip-path="url(#p153a8e441f)" style="fill: none; stroke: #353535"/>
   </g>
   <g id="line2d_138">
    <path d="M 96.055625 189.502805 
L 125.815625 189.502805 
" clip-path="url(#p153a8e441f)" style="fill: none; stroke: #353535"/>
   </g>
   <g id="line2d_139">
    <path d="M 133.255625 132.057153 
L 163.015625 132.057153 
" clip-path="url(#p153a8e441f)" style="fill: none; stroke: #353535"/>
   </g>
   <g id="line2d_140">
    <path d="M 170.455625 166.510034 
L 200.215625 166.510034 
" clip-path="url(#p153a8e441f)" style="fill: none; stroke: #353535"/>
   </g>
   <g id="line2d_141">
    <path d="M 207.655625 106.231653 
L 237.415625 106.231653 
" clip-path="url(#p153a8e441f)" style="fill: none; stroke: #353535"/>
   </g>
   <g id="line2d_142">
    <path d="M 244.855625 124.844546 
L 274.615625 124.844546 
" clip-path="url(#p153a8e441f)" style="fill: none; stroke: #353535"/>
   </g>
   <g id="line2d_143">
    <path d="M 282.055625 119.441932 
L 311.815625 119.441932 
" clip-path="url(#p153a8e441f)" style="fill: none; stroke: #353535"/>
   </g>
   <g id="line2d_144">
    <path d="M 319.255625 139.369679 
L 349.015625 139.369679 
" clip-path="url(#p153a8e441f)" style="fill: none; stroke: #353535"/>
   </g>
   <g id="line2d_145">
    <path d="M 356.455625 162.519011 
L 386.215625 162.519011 
" clip-path="url(#p153a8e441f)" style="fill: none; stroke: #353535"/>
   </g>
   <g id="line2d_146">
    <path d="M 393.655625 161.185064 
L 423.415625 161.185064 
" clip-path="url(#p153a8e441f)" style="fill: none; stroke: #353535"/>
   </g>
   <g id="line2d_147">
    <path d="M 430.855625 201.500693 
L 460.615625 201.500693 
" clip-path="url(#p153a8e441f)" style="fill: none; stroke: #353535"/>
   </g>
   <g id="line2d_148">
    <path d="M 468.055625 257.775323 
L 497.815625 257.775323 
" clip-path="url(#p153a8e441f)" style="fill: none; stroke: #353535"/>
   </g>
   <g id="patch_15">
    <path d="M 55.135625 336.24 
L 55.135625 3.6 
" style="fill: none; stroke: #000000; stroke-linejoin: miter; stroke-linecap: square"/>
   </g>
   <g id="patch_16">
    <path d="M 501.535625 336.24 
L 501.535625 3.6 
" style="fill: none; stroke: #000000; stroke-linejoin: miter; stroke-linecap: square"/>
   </g>
   <g id="patch_17">
    <path d="M 55.135625 336.24 
L 501.535625 336.24 
" style="fill: none; stroke: #000000; stroke-linejoin: miter; stroke-linecap: square"/>
   </g>
   <g id="patch_18">
    <path d="M 55.135625 3.6 
L 501.535625 3.6 
" style="fill: none; stroke: #000000; stroke-linejoin: miter; stroke-linecap: square"/>
   </g>
  </g>
 </g>
 <defs>
  <clipPath id="p153a8e441f">
   <rect x="55.135625" y="3.6" width="446.4" height="332.64"/>
  </clipPath>
 </defs>
</svg>
