<?xml version="1.0" encoding="utf-8" standalone="no"?>
<!DOCTYPE svg PUBLIC "-//W3C//DTD SVG 1.1//EN"
  "http://www.w3.org/Graphics/SVG/1.1/DTD/svg11.dtd">
<svg xmlns:xlink="http://www.w3.org/1999/xlink" width="226.063253pt" height="182.488466pt" viewBox="0 0 226.063253 182.488466" xmlns="http://www.w3.org/2000/svg" version="1.1">
 <metadata>
  <rdf:RDF xmlns:dc="http://purl.org/dc/elements/1.1/" xmlns:cc="http://creativecommons.org/ns#" xmlns:rdf="http://www.w3.org/1999/02/22-rdf-syntax-ns#">
   <cc:Work>
    <dc:type rdf:resource="http://purl.org/dc/dcmitype/StillImage"/>
    <dc:date>1980-01-01T00:00:00+00:00</dc:date>
    <dc:format>image/svg+xml</dc:format>
    <dc:creator>
     <cc:Agent>
      <dc:title>Matplotlib v3.9.2, https://matplotlib.org/</dc:title>
     </cc:Agent>
    </dc:creator>
   </cc:Work>
  </rdf:RDF>
 </metadata>
 <defs>
  <style type="text/css">*{stroke-linejoin: round; stroke-linecap: butt}</style>
 </defs>
 <g id="figure_1">
  <g id="patch_1">
   <path d="M 0 182.488466 
L 226.063253 182.488466 
L 226.063253 0 
L 0 0 
z
" style="fill: #ffffff"/>
  </g>
  <g id="axes_1">
   <g id="patch_2">
    <path d="M 35.276033 142.2 
L 219.416033 142.2 
L 219.416033 3.6 
L 35.276033 3.6 
z
" style="fill: #ffffff"/>
   </g>
   <g id="PolyCollection_1"/>
   <g id="matplotlib.axis_1">
    <g id="xtick_1">
     <g id="line2d_1">
      <defs>
       <path id="m58c4555b34" d="M 0 0 
L 0 -3 
" style="stroke: #000000; stroke-width: 0.5"/>
      </defs>
      <g>
       <use xlink:href="#m58c4555b34" x="43.646033" y="142.2" style="stroke: #000000; stroke-width: 0.5"/>
      </g>
     </g>
     <g id="line2d_2">
      <defs>
       <path id="m6c360f12d5" d="M 0 0 
L 0 3 
" style="stroke: #000000; stroke-width: 0.5"/>
      </defs>
      <g>
       <use xlink:href="#m6c360f12d5" x="43.646033" y="3.6" style="stroke: #000000; stroke-width: 0.5"/>
      </g>
     </g>
     <g id="text_1">
      <!-- $\mathdefault{2014}$ -->
      <g transform="translate(38.179297 164.317737) rotate(-45) scale(0.09 -0.09)">
       <defs>
        <path id="NimbusSanL-Regu-32" d="M 3238 556 
L 851 556 
C 909 928 1114 1165 1670 1493 
L 2310 1839 
C 2944 2185 3270 2653 3270 3211 
C 3270 3589 3117 3942 2848 4185 
C 2579 4428 2246 4544 1818 4544 
C 1242 4544 813 4339 563 3955 
C 403 3711 333 3429 320 2967 
L 883 2967 
C 902 3275 941 3461 1018 3608 
C 1165 3884 1459 4051 1798 4051 
C 2310 4051 2694 3685 2694 3198 
C 2694 2839 2483 2531 2080 2300 
L 1491 1967 
C 544 1428 269 999 218 0 
L 3238 0 
L 3238 556 
z
" transform="scale(0.015625)"/>
        <path id="NimbusSanL-Regu-30" d="M 1760 4544 
C 1338 4544 954 4358 717 4044 
C 422 3649 275 3043 275 2207 
C 275 683 787 -128 1760 -128 
C 2720 -128 3245 683 3245 2169 
C 3245 3049 3104 3636 2803 4044 
C 2566 4364 2189 4544 1760 4544 
z
M 1760 4044 
C 2368 4044 2669 3432 2669 2220 
C 2669 938 2374 339 1747 339 
C 1152 339 851 964 851 2201 
C 851 3438 1152 4044 1760 4044 
z
" transform="scale(0.015625)"/>
        <path id="NimbusSanL-Regu-31" d="M 1658 3232 
L 1658 0 
L 2221 0 
L 2221 4537 
L 1850 4537 
C 1651 3840 1523 3744 653 3635 
L 653 3232 
L 1658 3232 
z
" transform="scale(0.015625)"/>
        <path id="NimbusSanL-Regu-34" d="M 2093 1088 
L 2093 0 
L 2656 0 
L 2656 1088 
L 3328 1088 
L 3328 1593 
L 2656 1593 
L 2656 4537 
L 2240 4537 
L 179 1683 
L 179 1088 
L 2093 1088 
z
M 2093 1593 
L 672 1593 
L 2093 3577 
L 2093 1593 
z
" transform="scale(0.015625)"/>
       </defs>
       <use xlink:href="#NimbusSanL-Regu-32" transform="scale(0.996264)"/>
       <use xlink:href="#NimbusSanL-Regu-30" transform="translate(55.391677 0) scale(0.996264)"/>
       <use xlink:href="#NimbusSanL-Regu-31" transform="translate(110.783354 0) scale(0.996264)"/>
       <use xlink:href="#NimbusSanL-Regu-34" transform="translate(166.175031 0) scale(0.996264)"/>
      </g>
     </g>
    </g>
    <g id="xtick_2">
     <g id="line2d_3">
      <g>
       <use xlink:href="#m58c4555b34" x="60.520101" y="142.2" style="stroke: #000000; stroke-width: 0.5"/>
      </g>
     </g>
     <g id="line2d_4">
      <g>
       <use xlink:href="#m6c360f12d5" x="60.520101" y="3.6" style="stroke: #000000; stroke-width: 0.5"/>
      </g>
     </g>
     <g id="text_2">
      <!-- $\mathdefault{2015}$ -->
      <g transform="translate(55.053365 164.317737) rotate(-45) scale(0.09 -0.09)">
       <defs>
        <path id="NimbusSanL-Regu-35" d="M 3046 4544 
L 704 4544 
L 365 2076 
L 883 2076 
C 1146 2387 1363 2496 1715 2496 
C 2323 2496 2707 2082 2707 1414 
C 2707 765 2330 371 1715 371 
C 1222 371 922 619 787 1128 
L 224 1128 
C 301 759 365 581 499 415 
C 755 70 1216 -128 1728 -128 
C 2643 -128 3283 536 3283 1490 
C 3283 2381 2688 2995 1818 2995 
C 1498 2995 1242 2912 979 2720 
L 1158 3987 
L 3046 3987 
L 3046 4544 
z
" transform="scale(0.015625)"/>
       </defs>
       <use xlink:href="#NimbusSanL-Regu-32" transform="scale(0.996264)"/>
       <use xlink:href="#NimbusSanL-Regu-30" transform="translate(55.391677 0) scale(0.996264)"/>
       <use xlink:href="#NimbusSanL-Regu-31" transform="translate(110.783354 0) scale(0.996264)"/>
       <use xlink:href="#NimbusSanL-Regu-35" transform="translate(166.175031 0) scale(0.996264)"/>
      </g>
     </g>
    </g>
    <g id="xtick_3">
     <g id="line2d_5">
      <g>
       <use xlink:href="#m58c4555b34" x="77.394169" y="142.2" style="stroke: #000000; stroke-width: 0.5"/>
      </g>
     </g>
     <g id="line2d_6">
      <g>
       <use xlink:href="#m6c360f12d5" x="77.394169" y="3.6" style="stroke: #000000; stroke-width: 0.5"/>
      </g>
     </g>
     <g id="text_3">
      <!-- $\mathdefault{2016}$ -->
      <g transform="translate(71.927433 164.317737) rotate(-45) scale(0.09 -0.09)">
       <defs>
        <path id="NimbusSanL-Regu-36" d="M 3187 3352 
C 3078 4102 2592 4544 1901 4544 
C 1402 4544 954 4300 685 3895 
C 403 3449 275 2887 275 2064 
C 275 1312 390 832 659 434 
C 902 70 1299 -128 1798 -128 
C 2662 -128 3283 510 3283 1388 
C 3283 2221 2707 2816 1894 2816 
C 1446 2816 1094 2643 851 2310 
C 858 3423 1216 4044 1862 4044 
C 2259 4044 2534 3792 2624 3352 
L 3187 3352 
z
M 1824 2316 
C 2368 2316 2707 1944 2707 1343 
C 2707 781 2323 371 1805 371 
C 1280 371 883 800 883 1375 
C 883 1931 1267 2316 1824 2316 
z
" transform="scale(0.015625)"/>
       </defs>
       <use xlink:href="#NimbusSanL-Regu-32" transform="scale(0.996264)"/>
       <use xlink:href="#NimbusSanL-Regu-30" transform="translate(55.391677 0) scale(0.996264)"/>
       <use xlink:href="#NimbusSanL-Regu-31" transform="translate(110.783354 0) scale(0.996264)"/>
       <use xlink:href="#NimbusSanL-Regu-36" transform="translate(166.175031 0) scale(0.996264)"/>
      </g>
     </g>
    </g>
    <g id="xtick_4">
     <g id="line2d_7">
      <g>
       <use xlink:href="#m58c4555b34" x="94.314467" y="142.2" style="stroke: #000000; stroke-width: 0.5"/>
      </g>
     </g>
     <g id="line2d_8">
      <g>
       <use xlink:href="#m6c360f12d5" x="94.314467" y="3.6" style="stroke: #000000; stroke-width: 0.5"/>
      </g>
     </g>
     <g id="text_4">
      <!-- $\mathdefault{2017}$ -->
      <g transform="translate(88.847731 164.317737) rotate(-45) scale(0.09 -0.09)">
       <defs>
        <path id="NimbusSanL-Regu-37" d="M 3328 4544 
L 294 4544 
L 294 3987 
L 2746 3987 
C 1664 2442 1222 1493 883 0 
L 1485 0 
C 1734 1454 2304 2704 3328 4070 
L 3328 4544 
z
" transform="scale(0.015625)"/>
       </defs>
       <use xlink:href="#NimbusSanL-Regu-32" transform="scale(0.996264)"/>
       <use xlink:href="#NimbusSanL-Regu-30" transform="translate(55.391677 0) scale(0.996264)"/>
       <use xlink:href="#NimbusSanL-Regu-31" transform="translate(110.783354 0) scale(0.996264)"/>
       <use xlink:href="#NimbusSanL-Regu-37" transform="translate(166.175031 0) scale(0.996264)"/>
      </g>
     </g>
    </g>
    <g id="xtick_5">
     <g id="line2d_9">
      <g>
       <use xlink:href="#m58c4555b34" x="111.188535" y="142.2" style="stroke: #000000; stroke-width: 0.5"/>
      </g>
     </g>
     <g id="line2d_10">
      <g>
       <use xlink:href="#m6c360f12d5" x="111.188535" y="3.6" style="stroke: #000000; stroke-width: 0.5"/>
      </g>
     </g>
     <g id="text_5">
      <!-- $\mathdefault{2018}$ -->
      <g transform="translate(105.721799 164.317737) rotate(-45) scale(0.09 -0.09)">
       <defs>
        <path id="NimbusSanL-Regu-38" d="M 2502 2399 
C 2970 2681 3123 2910 3123 3337 
C 3123 4044 2566 4544 1760 4544 
C 960 4544 397 4044 397 3337 
C 397 2917 550 2687 1011 2399 
C 493 2150 237 1774 237 1276 
C 237 447 864 -128 1760 -128 
C 2656 -128 3283 447 3283 1270 
C 3283 1774 3027 2150 2502 2399 
z
M 1760 4044 
C 2240 4044 2547 3764 2547 3324 
C 2547 2904 2234 2624 1760 2624 
C 1286 2624 973 2904 973 3331 
C 973 3764 1286 4044 1760 4044 
z
M 1760 2150 
C 2323 2150 2707 1793 2707 1264 
C 2707 728 2323 371 1747 371 
C 1197 371 813 734 813 1264 
C 813 1793 1197 2150 1760 2150 
z
" transform="scale(0.015625)"/>
       </defs>
       <use xlink:href="#NimbusSanL-Regu-32" transform="scale(0.996264)"/>
       <use xlink:href="#NimbusSanL-Regu-30" transform="translate(55.391677 0) scale(0.996264)"/>
       <use xlink:href="#NimbusSanL-Regu-31" transform="translate(110.783354 0) scale(0.996264)"/>
       <use xlink:href="#NimbusSanL-Regu-38" transform="translate(166.175031 0) scale(0.996264)"/>
      </g>
     </g>
    </g>
    <g id="xtick_6">
     <g id="line2d_11">
      <g>
       <use xlink:href="#m58c4555b34" x="128.062603" y="142.2" style="stroke: #000000; stroke-width: 0.5"/>
      </g>
     </g>
     <g id="line2d_12">
      <g>
       <use xlink:href="#m6c360f12d5" x="128.062603" y="3.6" style="stroke: #000000; stroke-width: 0.5"/>
      </g>
     </g>
     <g id="text_6">
      <!-- $\mathdefault{2019}$ -->
      <g transform="translate(122.595867 164.317737) rotate(-45) scale(0.09 -0.09)">
       <defs>
        <path id="NimbusSanL-Regu-39" d="M 339 1063 
C 448 313 934 -128 1626 -128 
C 2125 -128 2579 115 2842 519 
C 3130 966 3258 1528 3258 2351 
C 3258 3103 3142 3583 2874 3981 
C 2624 4345 2227 4544 1728 4544 
C 864 4544 243 3906 243 3027 
C 243 2193 819 1600 1638 1600 
C 2067 1600 2381 1753 2675 2105 
C 2669 992 2310 371 1664 371 
C 1267 371 992 623 902 1063 
L 339 1063 
z
M 1722 4051 
C 2246 4051 2643 3621 2643 3040 
C 2643 2490 2253 2099 1702 2099 
C 1158 2099 819 2471 819 3072 
C 819 3640 1203 4051 1722 4051 
z
" transform="scale(0.015625)"/>
       </defs>
       <use xlink:href="#NimbusSanL-Regu-32" transform="scale(0.996264)"/>
       <use xlink:href="#NimbusSanL-Regu-30" transform="translate(55.391677 0) scale(0.996264)"/>
       <use xlink:href="#NimbusSanL-Regu-31" transform="translate(110.783354 0) scale(0.996264)"/>
       <use xlink:href="#NimbusSanL-Regu-39" transform="translate(166.175031 0) scale(0.996264)"/>
      </g>
     </g>
    </g>
    <g id="xtick_7">
     <g id="line2d_13">
      <g>
       <use xlink:href="#m58c4555b34" x="144.936671" y="142.2" style="stroke: #000000; stroke-width: 0.5"/>
      </g>
     </g>
     <g id="line2d_14">
      <g>
       <use xlink:href="#m6c360f12d5" x="144.936671" y="3.6" style="stroke: #000000; stroke-width: 0.5"/>
      </g>
     </g>
     <g id="text_7">
      <!-- $\mathdefault{2020}$ -->
      <g transform="translate(139.469935 164.317737) rotate(-45) scale(0.09 -0.09)">
       <use xlink:href="#NimbusSanL-Regu-32" transform="scale(0.996264)"/>
       <use xlink:href="#NimbusSanL-Regu-30" transform="translate(55.391677 0) scale(0.996264)"/>
       <use xlink:href="#NimbusSanL-Regu-32" transform="translate(110.783354 0) scale(0.996264)"/>
       <use xlink:href="#NimbusSanL-Regu-30" transform="translate(166.175031 0) scale(0.996264)"/>
      </g>
     </g>
    </g>
    <g id="xtick_8">
     <g id="line2d_15">
      <g>
       <use xlink:href="#m58c4555b34" x="161.856969" y="142.2" style="stroke: #000000; stroke-width: 0.5"/>
      </g>
     </g>
     <g id="line2d_16">
      <g>
       <use xlink:href="#m6c360f12d5" x="161.856969" y="3.6" style="stroke: #000000; stroke-width: 0.5"/>
      </g>
     </g>
     <g id="text_8">
      <!-- $\mathdefault{2021}$ -->
      <g transform="translate(156.390233 164.317737) rotate(-45) scale(0.09 -0.09)">
       <use xlink:href="#NimbusSanL-Regu-32" transform="scale(0.996264)"/>
       <use xlink:href="#NimbusSanL-Regu-30" transform="translate(55.391677 0) scale(0.996264)"/>
       <use xlink:href="#NimbusSanL-Regu-32" transform="translate(110.783354 0) scale(0.996264)"/>
       <use xlink:href="#NimbusSanL-Regu-31" transform="translate(166.175031 0) scale(0.996264)"/>
      </g>
     </g>
    </g>
    <g id="xtick_9">
     <g id="line2d_17">
      <g>
       <use xlink:href="#m58c4555b34" x="178.731037" y="142.2" style="stroke: #000000; stroke-width: 0.5"/>
      </g>
     </g>
     <g id="line2d_18">
      <g>
       <use xlink:href="#m6c360f12d5" x="178.731037" y="3.6" style="stroke: #000000; stroke-width: 0.5"/>
      </g>
     </g>
     <g id="text_9">
      <!-- $\mathdefault{2022}$ -->
      <g transform="translate(173.264301 164.317737) rotate(-45) scale(0.09 -0.09)">
       <use xlink:href="#NimbusSanL-Regu-32" transform="scale(0.996264)"/>
       <use xlink:href="#NimbusSanL-Regu-30" transform="translate(55.391677 0) scale(0.996264)"/>
       <use xlink:href="#NimbusSanL-Regu-32" transform="translate(110.783354 0) scale(0.996264)"/>
       <use xlink:href="#NimbusSanL-Regu-32" transform="translate(166.175031 0) scale(0.996264)"/>
      </g>
     </g>
    </g>
    <g id="xtick_10">
     <g id="line2d_19">
      <g>
       <use xlink:href="#m58c4555b34" x="195.605105" y="142.2" style="stroke: #000000; stroke-width: 0.5"/>
      </g>
     </g>
     <g id="line2d_20">
      <g>
       <use xlink:href="#m6c360f12d5" x="195.605105" y="3.6" style="stroke: #000000; stroke-width: 0.5"/>
      </g>
     </g>
     <g id="text_10">
      <!-- $\mathdefault{2023}$ -->
      <g transform="translate(190.138369 164.317737) rotate(-45) scale(0.09 -0.09)">
       <defs>
        <path id="NimbusSanL-Regu-33" d="M 1414 2093 
L 1485 2093 
L 1722 2099 
C 2342 2099 2662 1819 2662 1276 
C 2662 709 2310 371 1722 371 
C 1107 371 806 677 768 1334 
L 205 1334 
C 230 970 294 734 403 530 
C 634 96 1082 -128 1702 -128 
C 2637 -128 3238 428 3238 1283 
C 3238 1857 3014 2176 2470 2361 
C 2893 2526 3104 2845 3104 3298 
C 3104 4076 2586 4544 1722 4544 
C 806 4544 320 4044 301 3081 
L 864 3081 
C 870 3356 896 3509 966 3649 
C 1094 3898 1376 4051 1728 4051 
C 2227 4051 2528 3757 2528 3279 
C 2528 2960 2413 2769 2163 2667 
C 2010 2603 1811 2577 1414 2571 
L 1414 2093 
z
" transform="scale(0.015625)"/>
       </defs>
       <use xlink:href="#NimbusSanL-Regu-32" transform="scale(0.996264)"/>
       <use xlink:href="#NimbusSanL-Regu-30" transform="translate(55.391677 0) scale(0.996264)"/>
       <use xlink:href="#NimbusSanL-Regu-32" transform="translate(110.783354 0) scale(0.996264)"/>
       <use xlink:href="#NimbusSanL-Regu-33" transform="translate(166.175031 0) scale(0.996264)"/>
      </g>
     </g>
    </g>
    <g id="xtick_11">
     <g id="line2d_21">
      <g>
       <use xlink:href="#m58c4555b34" x="212.479173" y="142.2" style="stroke: #000000; stroke-width: 0.5"/>
      </g>
     </g>
     <g id="line2d_22">
      <g>
       <use xlink:href="#m6c360f12d5" x="212.479173" y="3.6" style="stroke: #000000; stroke-width: 0.5"/>
      </g>
     </g>
     <g id="text_11">
      <!-- $\mathdefault{2024}$ -->
      <g transform="translate(207.012437 164.317737) rotate(-45) scale(0.09 -0.09)">
       <use xlink:href="#NimbusSanL-Regu-32" transform="scale(0.996264)"/>
       <use xlink:href="#NimbusSanL-Regu-30" transform="translate(55.391677 0) scale(0.996264)"/>
       <use xlink:href="#NimbusSanL-Regu-32" transform="translate(110.783354 0) scale(0.996264)"/>
       <use xlink:href="#NimbusSanL-Regu-34" transform="translate(166.175031 0) scale(0.996264)"/>
      </g>
     </g>
    </g>
    <g id="text_12">
     <!-- Year -->
     <g transform="translate(117.522945 176.766479) scale(0.1 -0.1)">
      <defs>
       <path id="NimbusSanL-Regu-59" d="M 2477 1832 
L 4230 4672 
L 3520 4672 
L 2189 2396 
L 819 4672 
L 83 4672 
L 1882 1832 
L 1882 0 
L 2477 0 
L 2477 1832 
z
" transform="scale(0.015625)"/>
       <path id="NimbusSanL-Regu-65" d="M 3283 1484 
C 3283 1998 3245 2311 3149 2565 
C 2931 3123 2419 3456 1792 3456 
C 858 3456 256 2734 256 1619 
C 256 545 838 -128 1779 -128 
C 2547 -128 3078 307 3213 1018 
L 2675 1018 
C 2528 588 2227 364 1798 364 
C 1459 364 1171 514 992 787 
C 864 974 819 1161 813 1484 
L 3283 1484 
z
M 826 1920 
C 870 2552 1248 2963 1786 2963 
C 2310 2963 2714 2519 2714 1959 
C 2714 1946 2714 1933 2707 1920 
L 826 1920 
z
" transform="scale(0.015625)"/>
       <path id="NimbusSanL-Regu-61" d="M 3424 332 
C 3366 320 3341 320 3309 320 
C 3123 320 3021 415 3021 581 
L 3021 2542 
C 3021 3135 2586 3456 1760 3456 
C 1274 3456 870 3315 646 3065 
C 493 2893 429 2702 416 2370 
L 954 2370 
C 998 2778 1242 2963 1741 2963 
C 2221 2963 2490 2784 2490 2466 
L 2490 2326 
C 2490 2103 2355 2007 1933 1956 
C 1178 1861 1062 1835 858 1753 
C 467 1593 269 1294 269 861 
C 269 256 691 -128 1370 -128 
C 1792 -128 2131 19 2509 364 
C 2547 25 2714 -128 3059 -128 
C 3168 -128 3251 -116 3424 -71 
L 3424 332 
z
M 2490 1071 
C 2490 893 2438 785 2278 638 
C 2061 441 1798 339 1485 339 
C 1069 339 826 536 826 874 
C 826 1224 1062 1402 1632 1485 
C 2195 1562 2310 1587 2490 1670 
L 2490 1071 
z
" transform="scale(0.015625)"/>
       <path id="NimbusSanL-Regu-72" d="M 442 3328 
L 442 0 
L 979 0 
L 979 1727 
C 979 2203 1101 2514 1357 2698 
C 1523 2819 1683 2857 2054 2863 
L 2054 3404 
C 1965 3449 1920 3456 1850 3456 
C 1504 3456 1242 3251 934 2750 
L 934 3328 
L 442 3328 
z
" transform="scale(0.015625)"/>
      </defs>
      <use xlink:href="#NimbusSanL-Regu-59" transform="scale(0.996264)"/>
      <use xlink:href="#NimbusSanL-Regu-65" transform="translate(52.503338 0) scale(0.996264)"/>
      <use xlink:href="#NimbusSanL-Regu-61" transform="translate(107.895015 0) scale(0.996264)"/>
      <use xlink:href="#NimbusSanL-Regu-72" transform="translate(163.286692 0) scale(0.996264)"/>
     </g>
    </g>
   </g>
   <g id="matplotlib.axis_2">
    <g id="ytick_1">
     <g id="line2d_23">
      <defs>
       <path id="mbbd072192d" d="M 0 0 
L 3 0 
" style="stroke: #000000; stroke-width: 0.5"/>
      </defs>
      <g>
       <use xlink:href="#mbbd072192d" x="35.276033" y="108.183647" style="stroke: #000000; stroke-width: 0.5"/>
      </g>
     </g>
     <g id="line2d_24">
      <defs>
       <path id="m63641d2a97" d="M 0 0 
L -3 0 
" style="stroke: #000000; stroke-width: 0.5"/>
      </defs>
      <g>
       <use xlink:href="#m63641d2a97" x="219.416033" y="108.183647" style="stroke: #000000; stroke-width: 0.5"/>
      </g>
     </g>
     <g id="text_13">
      <!-- $\mathdefault{100}$ -->
      <g transform="translate(16.820307 111.377891) scale(0.09 -0.09)">
       <use xlink:href="#NimbusSanL-Regu-31" transform="scale(0.996264)"/>
       <use xlink:href="#NimbusSanL-Regu-30" transform="translate(55.391677 0) scale(0.996264)"/>
       <use xlink:href="#NimbusSanL-Regu-30" transform="translate(110.783354 0) scale(0.996264)"/>
      </g>
     </g>
    </g>
    <g id="ytick_2">
     <g id="line2d_25">
      <g>
       <use xlink:href="#mbbd072192d" x="35.276033" y="71.714761" style="stroke: #000000; stroke-width: 0.5"/>
      </g>
     </g>
     <g id="line2d_26">
      <g>
       <use xlink:href="#m63641d2a97" x="219.416033" y="71.714761" style="stroke: #000000; stroke-width: 0.5"/>
      </g>
     </g>
     <g id="text_14">
      <!-- $\mathdefault{120}$ -->
      <g transform="translate(16.820307 74.909005) scale(0.09 -0.09)">
       <use xlink:href="#NimbusSanL-Regu-31" transform="scale(0.996264)"/>
       <use xlink:href="#NimbusSanL-Regu-32" transform="translate(55.391677 0) scale(0.996264)"/>
       <use xlink:href="#NimbusSanL-Regu-30" transform="translate(110.783354 0) scale(0.996264)"/>
      </g>
     </g>
    </g>
    <g id="ytick_3">
     <g id="line2d_27">
      <g>
       <use xlink:href="#mbbd072192d" x="35.276033" y="35.245876" style="stroke: #000000; stroke-width: 0.5"/>
      </g>
     </g>
     <g id="line2d_28">
      <g>
       <use xlink:href="#m63641d2a97" x="219.416033" y="35.245876" style="stroke: #000000; stroke-width: 0.5"/>
      </g>
     </g>
     <g id="text_15">
      <!-- $\mathdefault{140}$ -->
      <g transform="translate(16.820307 38.44012) scale(0.09 -0.09)">
       <use xlink:href="#NimbusSanL-Regu-31" transform="scale(0.996264)"/>
       <use xlink:href="#NimbusSanL-Regu-34" transform="translate(55.391677 0) scale(0.996264)"/>
       <use xlink:href="#NimbusSanL-Regu-30" transform="translate(110.783354 0) scale(0.996264)"/>
      </g>
     </g>
    </g>
    <g id="ytick_4">
     <g id="line2d_29">
      <defs>
       <path id="m2b14accdc2" d="M 0 0 
L 1.5 0 
" style="stroke: #000000; stroke-width: 0.5"/>
      </defs>
      <g>
       <use xlink:href="#m2b14accdc2" x="35.276033" y="135.535311" style="stroke: #000000; stroke-width: 0.5"/>
      </g>
     </g>
     <g id="line2d_30">
      <defs>
       <path id="mb42de4c3ed" d="M 0 0 
L -1.5 0 
" style="stroke: #000000; stroke-width: 0.5"/>
      </defs>
      <g>
       <use xlink:href="#mb42de4c3ed" x="219.416033" y="135.535311" style="stroke: #000000; stroke-width: 0.5"/>
      </g>
     </g>
    </g>
    <g id="ytick_5">
     <g id="line2d_31">
      <g>
       <use xlink:href="#m2b14accdc2" x="35.276033" y="126.41809" style="stroke: #000000; stroke-width: 0.5"/>
      </g>
     </g>
     <g id="line2d_32">
      <g>
       <use xlink:href="#mb42de4c3ed" x="219.416033" y="126.41809" style="stroke: #000000; stroke-width: 0.5"/>
      </g>
     </g>
    </g>
    <g id="ytick_6">
     <g id="line2d_33">
      <g>
       <use xlink:href="#m2b14accdc2" x="35.276033" y="117.300868" style="stroke: #000000; stroke-width: 0.5"/>
      </g>
     </g>
     <g id="line2d_34">
      <g>
       <use xlink:href="#mb42de4c3ed" x="219.416033" y="117.300868" style="stroke: #000000; stroke-width: 0.5"/>
      </g>
     </g>
    </g>
    <g id="ytick_7">
     <g id="line2d_35">
      <g>
       <use xlink:href="#m2b14accdc2" x="35.276033" y="99.066425" style="stroke: #000000; stroke-width: 0.5"/>
      </g>
     </g>
     <g id="line2d_36">
      <g>
       <use xlink:href="#mb42de4c3ed" x="219.416033" y="99.066425" style="stroke: #000000; stroke-width: 0.5"/>
      </g>
     </g>
    </g>
    <g id="ytick_8">
     <g id="line2d_37">
      <g>
       <use xlink:href="#m2b14accdc2" x="35.276033" y="89.949204" style="stroke: #000000; stroke-width: 0.5"/>
      </g>
     </g>
     <g id="line2d_38">
      <g>
       <use xlink:href="#mb42de4c3ed" x="219.416033" y="89.949204" style="stroke: #000000; stroke-width: 0.5"/>
      </g>
     </g>
    </g>
    <g id="ytick_9">
     <g id="line2d_39">
      <g>
       <use xlink:href="#m2b14accdc2" x="35.276033" y="80.831983" style="stroke: #000000; stroke-width: 0.5"/>
      </g>
     </g>
     <g id="line2d_40">
      <g>
       <use xlink:href="#mb42de4c3ed" x="219.416033" y="80.831983" style="stroke: #000000; stroke-width: 0.5"/>
      </g>
     </g>
    </g>
    <g id="ytick_10">
     <g id="line2d_41">
      <g>
       <use xlink:href="#m2b14accdc2" x="35.276033" y="62.59754" style="stroke: #000000; stroke-width: 0.5"/>
      </g>
     </g>
     <g id="line2d_42">
      <g>
       <use xlink:href="#mb42de4c3ed" x="219.416033" y="62.59754" style="stroke: #000000; stroke-width: 0.5"/>
      </g>
     </g>
    </g>
    <g id="ytick_11">
     <g id="line2d_43">
      <g>
       <use xlink:href="#m2b14accdc2" x="35.276033" y="53.480318" style="stroke: #000000; stroke-width: 0.5"/>
      </g>
     </g>
     <g id="line2d_44">
      <g>
       <use xlink:href="#mb42de4c3ed" x="219.416033" y="53.480318" style="stroke: #000000; stroke-width: 0.5"/>
      </g>
     </g>
    </g>
    <g id="ytick_12">
     <g id="line2d_45">
      <g>
       <use xlink:href="#m2b14accdc2" x="35.276033" y="44.363097" style="stroke: #000000; stroke-width: 0.5"/>
      </g>
     </g>
     <g id="line2d_46">
      <g>
       <use xlink:href="#mb42de4c3ed" x="219.416033" y="44.363097" style="stroke: #000000; stroke-width: 0.5"/>
      </g>
     </g>
    </g>
    <g id="ytick_13">
     <g id="line2d_47">
      <g>
       <use xlink:href="#m2b14accdc2" x="35.276033" y="26.128654" style="stroke: #000000; stroke-width: 0.5"/>
      </g>
     </g>
     <g id="line2d_48">
      <g>
       <use xlink:href="#mb42de4c3ed" x="219.416033" y="26.128654" style="stroke: #000000; stroke-width: 0.5"/>
      </g>
     </g>
    </g>
    <g id="ytick_14">
     <g id="line2d_49">
      <g>
       <use xlink:href="#m2b14accdc2" x="35.276033" y="17.011433" style="stroke: #000000; stroke-width: 0.5"/>
      </g>
     </g>
     <g id="line2d_50">
      <g>
       <use xlink:href="#mb42de4c3ed" x="219.416033" y="17.011433" style="stroke: #000000; stroke-width: 0.5"/>
      </g>
     </g>
    </g>
    <g id="ytick_15">
     <g id="line2d_51">
      <g>
       <use xlink:href="#m2b14accdc2" x="35.276033" y="7.894211" style="stroke: #000000; stroke-width: 0.5"/>
      </g>
     </g>
     <g id="line2d_52">
      <g>
       <use xlink:href="#mb42de4c3ed" x="219.416033" y="7.894211" style="stroke: #000000; stroke-width: 0.5"/>
      </g>
     </g>
    </g>
    <g id="text_16">
     <!-- Turnover in Retail Trade -->
     <g transform="translate(10.69832 125.282986) rotate(-90) scale(0.1 -0.1)">
      <defs>
       <path id="NimbusSanL-Regu-54" d="M 2266 4147 
L 3795 4147 
L 3795 4672 
L 134 4672 
L 134 4147 
L 1670 4147 
L 1670 0 
L 2266 0 
L 2266 4147 
z
" transform="scale(0.015625)"/>
       <path id="NimbusSanL-Regu-75" d="M 3085 19 
L 3085 3328 
L 2554 3328 
L 2554 1454 
C 2554 780 2195 339 1638 339 
C 1216 339 947 591 947 988 
L 947 3328 
L 416 3328 
L 416 780 
C 416 230 832 -128 1485 -128 
C 1978 -128 2291 44 2605 484 
L 2605 19 
L 3085 19 
z
" transform="scale(0.015625)"/>
       <path id="NimbusSanL-Regu-6e" d="M 448 3328 
L 448 0 
L 986 0 
L 986 1835 
C 986 2539 1344 2988 1894 2988 
C 2317 2988 2586 2732 2586 2328 
L 2586 0 
L 3117 0 
L 3117 2539 
C 3117 3097 2701 3456 2054 3456 
C 1555 3456 1235 3263 941 2796 
L 941 3328 
L 448 3328 
z
" transform="scale(0.015625)"/>
       <path id="NimbusSanL-Regu-6f" d="M 1741 3456 
C 800 3456 230 2784 230 1663 
C 230 543 794 -128 1747 -128 
C 2688 -128 3264 543 3264 1638 
C 3264 2791 2707 3456 1741 3456 
z
M 1747 2963 
C 2349 2963 2707 2472 2707 1644 
C 2707 861 2336 364 1747 364 
C 1152 364 787 855 787 1663 
C 787 2466 1152 2963 1747 2963 
z
" transform="scale(0.015625)"/>
       <path id="NimbusSanL-Regu-76" d="M 1824 0 
L 3110 3328 
L 2509 3328 
L 1562 629 
L 666 3328 
L 64 3328 
L 1242 0 
L 1824 0 
z
" transform="scale(0.015625)"/>
       <path id="NimbusSanL-Regu-69" d="M 960 3358 
L 429 3358 
L 429 0 
L 960 0 
L 960 3358 
z
M 960 4672 
L 422 4672 
L 422 3999 
L 960 3999 
L 960 4672 
z
" transform="scale(0.015625)"/>
       <path id="NimbusSanL-Regu-52" d="M 1190 2035 
L 2726 2035 
C 3258 2035 3494 1775 3494 1191 
L 3488 770 
C 3488 478 3539 192 3622 0 
L 4346 0 
L 4346 147 
C 4122 303 4077 471 4064 1101 
C 4058 1879 3936 2111 3430 2329 
C 3955 2585 4166 2907 4166 3432 
C 4166 4230 3661 4672 2746 4672 
L 595 4672 
L 595 0 
L 1190 0 
L 1190 2035 
z
M 1190 2560 
L 1190 4147 
L 2630 4147 
C 2963 4147 3155 4096 3302 3970 
C 3462 3837 3546 3628 3546 3350 
C 3546 2806 3264 2560 2630 2560 
L 1190 2560 
z
" transform="scale(0.015625)"/>
       <path id="NimbusSanL-Regu-74" d="M 1626 3328 
L 1075 3328 
L 1075 4249 
L 544 4249 
L 544 3328 
L 90 3328 
L 90 2892 
L 544 2892 
L 544 402 
C 544 64 774 -128 1190 -128 
C 1318 -128 1446 -116 1626 -84 
L 1626 364 
C 1555 345 1472 339 1370 339 
C 1139 339 1075 402 1075 634 
L 1075 2892 
L 1626 2892 
L 1626 3328 
z
" transform="scale(0.015625)"/>
       <path id="NimbusSanL-Regu-6c" d="M 973 4672 
L 435 4672 
L 435 0 
L 973 0 
L 973 4672 
z
" transform="scale(0.015625)"/>
       <path id="NimbusSanL-Regu-64" d="M 3168 4672 
L 2637 4672 
L 2637 2937 
C 2413 3276 2054 3456 1606 3456 
C 736 3456 166 2759 166 1695 
C 166 568 723 -128 1626 -128 
C 2086 -128 2406 44 2694 460 
L 2694 19 
L 3168 19 
L 3168 4672 
z
M 1696 2956 
C 2272 2956 2637 2447 2637 1651 
C 2637 880 2266 371 1702 371 
C 1114 371 723 887 723 1663 
C 723 2440 1114 2956 1696 2956 
z
" transform="scale(0.015625)"/>
      </defs>
      <use xlink:href="#NimbusSanL-Regu-54" transform="scale(0.996264)"/>
      <use xlink:href="#NimbusSanL-Regu-75" transform="translate(48.916949 0) scale(0.996264)"/>
      <use xlink:href="#NimbusSanL-Regu-72" transform="translate(104.308626 0) scale(0.996264)"/>
      <use xlink:href="#NimbusSanL-Regu-6e" transform="translate(139.97447 0) scale(0.996264)"/>
      <use xlink:href="#NimbusSanL-Regu-6f" transform="translate(195.366147 0) scale(0.996264)"/>
      <use xlink:href="#NimbusSanL-Regu-76" transform="translate(249.264431 0) scale(0.996264)"/>
      <use xlink:href="#NimbusSanL-Regu-65" transform="translate(296.587002 0) scale(0.996264)"/>
      <use xlink:href="#NimbusSanL-Regu-72" transform="translate(351.978679 0) scale(0.996264)"/>
      <use xlink:href="#NimbusSanL-Regu-69" transform="translate(412.849079 0) scale(0.996264)"/>
      <use xlink:href="#NimbusSanL-Regu-6e" transform="translate(434.965863 0) scale(0.996264)"/>
      <use xlink:href="#NimbusSanL-Regu-52" transform="translate(518.052709 0) scale(0.996264)"/>
      <use xlink:href="#NimbusSanL-Regu-65" transform="translate(589.982694 0) scale(0.996264)"/>
      <use xlink:href="#NimbusSanL-Regu-74" transform="translate(645.374371 0) scale(0.996264)"/>
      <use xlink:href="#NimbusSanL-Regu-61" transform="translate(673.069541 0) scale(0.996264)"/>
      <use xlink:href="#NimbusSanL-Regu-69" transform="translate(728.461218 0) scale(0.996264)"/>
      <use xlink:href="#NimbusSanL-Regu-6c" transform="translate(750.578002 0) scale(0.996264)"/>
      <use xlink:href="#NimbusSanL-Regu-54" transform="translate(800.389956 0) scale(0.996264)"/>
      <use xlink:href="#NimbusSanL-Regu-72" transform="translate(849.306905 0) scale(0.996264)"/>
      <use xlink:href="#NimbusSanL-Regu-61" transform="translate(881.486038 0) scale(0.996264)"/>
      <use xlink:href="#NimbusSanL-Regu-64" transform="translate(936.877715 0) scale(0.996264)"/>
      <use xlink:href="#NimbusSanL-Regu-65" transform="translate(992.269392 0) scale(0.996264)"/>
     </g>
    </g>
   </g>
   <g id="line2d_53">
    <path d="M 43.646033 127.329812 
L 45.079173 135.9 
L 46.373622 114.748046 
L 47.806762 110.37178 
L 49.193672 112.377569 
L 50.626812 121.859479 
L 52.013721 113.471635 
L 53.446861 121.49479 
L 54.880002 118.759624 
L 56.266911 106.724891 
L 57.700051 110.918813 
L 59.086961 83.567149 
L 60.520101 124.047612 
L 61.953241 132.6178 
L 63.24769 107.818958 
L 64.68083 109.824747 
L 66.06774 111.648191 
L 67.50088 109.824747 
L 68.887789 103.625036 
L 70.320929 116.571491 
L 71.754069 110.736469 
L 73.140979 99.24877 
L 74.574119 101.801592 
L 75.961029 70.43835 
L 77.394169 123.318234 
L 78.827309 121.312446 
L 80.167988 103.625036 
L 81.601128 101.254559 
L 82.988038 106.542547 
L 84.421178 105.083792 
L 85.808088 106.177858 
L 87.241228 108.548336 
L 88.674368 108.001302 
L 90.061277 97.60767 
L 91.494417 91.590304 
L 92.881327 61.685818 
L 94.314467 114.018669 
L 95.747607 120.583068 
L 97.042056 89.76686 
L 98.475196 97.242981 
L 99.862106 91.407959 
L 101.295246 97.060637 
L 102.682156 97.972359 
L 104.115296 100.525181 
L 105.548436 95.96657 
L 106.935345 96.513603 
L 108.368485 79.190883 
L 109.755395 57.856585 
L 111.188535 107.08958 
L 112.621675 116.571491 
L 113.916124 83.20246 
L 115.349264 90.496237 
L 116.736174 89.402171 
L 118.169314 85.755282 
L 119.556224 92.137337 
L 120.989364 93.231404 
L 122.422504 97.972359 
L 123.809413 80.649638 
L 125.242553 70.985384 
L 126.629463 58.768307 
L 128.062603 98.519392 
L 129.495743 106.177858 
L 130.790192 84.296527 
L 132.223332 76.455716 
L 133.610242 79.190883 
L 135.043382 86.849349 
L 136.430291 78.279161 
L 137.863432 84.84356 
L 139.296572 90.131548 
L 140.683481 75.36165 
L 142.116621 63.326918 
L 143.503531 51.109841 
L 144.936671 91.043271 
L 146.369811 91.590304 
L 147.71049 78.461505 
L 149.14363 85.025904 
L 150.53054 67.520839 
L 151.96368 70.256006 
L 153.35059 62.962229 
L 154.78373 74.632272 
L 156.21687 71.350072 
L 157.603779 51.292185 
L 159.036919 46.004197 
L 160.423829 34.698842 
L 161.856969 106.907236 
L 163.290109 102.895658 
L 164.584558 47.280608 
L 166.017698 72.444139 
L 167.404608 67.885528 
L 168.837748 51.109841 
L 170.224658 58.403618 
L 171.657798 70.803039 
L 173.090938 68.614906 
L 174.477847 52.933285 
L 175.910987 33.78712 
L 177.297897 21.02301 
L 178.731037 72.991172 
L 180.164177 74.085239 
L 181.458626 37.798698 
L 182.891766 44.363097 
L 184.278676 40.898553 
L 185.711816 51.839219 
L 187.098726 47.280608 
L 188.531866 52.021563 
L 189.965006 44.91013 
L 191.351915 43.633719 
L 192.785055 22.299421 
L 194.171965 9.9 
L 195.605105 61.868162 
L 197.038245 68.432562 
L 198.332694 31.234298 
L 199.765834 46.733575 
L 201.152744 33.422431 
L 202.585884 34.334153 
L 203.972794 40.533864 
L 205.405934 46.186541 
L 206.839074 46.004197 
L 208.225983 36.704631 
L 209.659123 18.834877 
L 211.046033 11.905789 
" clip-path="url(#pa8e8f8a2f6)" style="fill: none; stroke: #8b4513; stroke-width: 1.5; stroke-linecap: square"/>
   </g>
   <g id="line2d_54">
    <path d="M 43.646033 142.2 
L 43.646033 3.6 
" clip-path="url(#pa8e8f8a2f6)" style="fill: none; stroke-dasharray: 2.96,1.28; stroke-dashoffset: 0; stroke: #000000; stroke-width: 0.8"/>
   </g>
   <g id="line2d_55">
    <path d="M 60.520101 142.2 
L 60.520101 3.6 
" clip-path="url(#pa8e8f8a2f6)" style="fill: none; stroke-dasharray: 2.96,1.28; stroke-dashoffset: 0; stroke: #000000; stroke-width: 0.8"/>
   </g>
   <g id="line2d_56">
    <path d="M 77.394169 142.2 
L 77.394169 3.6 
" clip-path="url(#pa8e8f8a2f6)" style="fill: none; stroke-dasharray: 2.96,1.28; stroke-dashoffset: 0; stroke: #000000; stroke-width: 0.8"/>
   </g>
   <g id="line2d_57">
    <path d="M 94.314467 142.2 
L 94.314467 3.6 
" clip-path="url(#pa8e8f8a2f6)" style="fill: none; stroke-dasharray: 2.96,1.28; stroke-dashoffset: 0; stroke: #000000; stroke-width: 0.8"/>
   </g>
   <g id="line2d_58">
    <path d="M 111.188535 142.2 
L 111.188535 3.6 
" clip-path="url(#pa8e8f8a2f6)" style="fill: none; stroke-dasharray: 2.96,1.28; stroke-dashoffset: 0; stroke: #000000; stroke-width: 0.8"/>
   </g>
   <g id="line2d_59">
    <path d="M 128.062603 142.2 
L 128.062603 3.6 
" clip-path="url(#pa8e8f8a2f6)" style="fill: none; stroke-dasharray: 2.96,1.28; stroke-dashoffset: 0; stroke: #000000; stroke-width: 0.8"/>
   </g>
   <g id="line2d_60">
    <path d="M 144.936671 142.2 
L 144.936671 3.6 
" clip-path="url(#pa8e8f8a2f6)" style="fill: none; stroke-dasharray: 2.96,1.28; stroke-dashoffset: 0; stroke: #000000; stroke-width: 0.8"/>
   </g>
   <g id="line2d_61">
    <path d="M 161.856969 142.2 
L 161.856969 3.6 
" clip-path="url(#pa8e8f8a2f6)" style="fill: none; stroke-dasharray: 2.96,1.28; stroke-dashoffset: 0; stroke: #000000; stroke-width: 0.8"/>
   </g>
   <g id="line2d_62">
    <path d="M 178.731037 142.2 
L 178.731037 3.6 
" clip-path="url(#pa8e8f8a2f6)" style="fill: none; stroke-dasharray: 2.96,1.28; stroke-dashoffset: 0; stroke: #000000; stroke-width: 0.8"/>
   </g>
   <g id="line2d_63">
    <path d="M 195.605105 142.2 
L 195.605105 3.6 
" clip-path="url(#pa8e8f8a2f6)" style="fill: none; stroke-dasharray: 2.96,1.28; stroke-dashoffset: 0; stroke: #000000; stroke-width: 0.8"/>
   </g>
   <g id="patch_3">
    <path d="M 35.276033 142.2 
L 35.276033 3.6 
" style="fill: none; stroke: #000000; stroke-width: 0.5; stroke-linejoin: miter; stroke-linecap: square"/>
   </g>
   <g id="patch_4">
    <path d="M 219.416033 142.2 
L 219.416033 3.6 
" style="fill: none; stroke: #000000; stroke-width: 0.5; stroke-linejoin: miter; stroke-linecap: square"/>
   </g>
   <g id="patch_5">
    <path d="M 35.276033 142.2 
L 219.416033 142.2 
" style="fill: none; stroke: #000000; stroke-width: 0.5; stroke-linejoin: miter; stroke-linecap: square"/>
   </g>
   <g id="patch_6">
    <path d="M 35.276033 3.6 
L 219.416033 3.6 
" style="fill: none; stroke: #000000; stroke-width: 0.5; stroke-linejoin: miter; stroke-linecap: square"/>
   </g>
  </g>
 </g>
 <defs>
  <clipPath id="pa8e8f8a2f6">
   <rect x="35.276033" y="3.6" width="184.14" height="138.6"/>
  </clipPath>
 </defs>
</svg>
